<?xml version="1.0" encoding="UTF-8"?>
<svg xmlns="http://www.w3.org/2000/svg" xmlns:xlink="http://www.w3.org/1999/xlink" width="64pt" height="64pt" viewBox="0 0 64 64" version="1.1">
<g id="surface1">
<path style=" stroke:none;fill-rule:nonzero;fill:rgb(7.45098%,7.45098%,7.45098%);fill-opacity:1;" d="M 44.617188 2.929688 L 40.925781 2.929688 L 44.765625 7.09375 L 44.765625 9.078125 L 36.855469 9.078125 L 36.855469 6.753906 L 40.695312 6.753906 L 36.855469 2.589844 L 36.855469 0.601562 L 44.617188 0.601562 Z M 35.289062 2.929688 L 31.597656 2.929688 L 35.4375 7.09375 L 35.4375 9.078125 L 27.527344 9.078125 L 27.527344 6.753906 L 31.367188 6.753906 L 27.527344 2.589844 L 27.527344 0.601562 L 35.289062 0.601562 Z M 26.050781 3.023438 L 22.066406 3.023438 L 22.066406 6.660156 L 26.050781 6.660156 L 26.050781 9.078125 L 19.234375 9.078125 L 19.234375 0.601562 L 26.050781 0.601562 Z M 26.050781 3.023438 "/>
<path style=" stroke:none;fill-rule:nonzero;fill:rgb(8.235294%,44.705882%,71.372549%);fill-opacity:1;" d="M 13.804688 58.351562 L 9.757812 12.945312 L 54.242188 12.945312 L 50.191406 58.34375 L 31.972656 63.398438 Z M 13.804688 58.351562 "/>
<path style=" stroke:none;fill-rule:nonzero;fill:rgb(20%,66.27451%,86.27451%);fill-opacity:1;" d="M 32 59.535156 L 46.71875 55.453125 L 50.183594 16.660156 L 32 16.660156 Z M 32 59.535156 "/>
<path style=" stroke:none;fill-rule:nonzero;fill:rgb(100%,100%,100%);fill-opacity:1;" d="M 32 33.109375 L 39.367188 33.109375 L 39.878906 27.40625 L 32 27.40625 L 32 21.839844 L 45.964844 21.839844 L 45.832031 23.332031 L 44.460938 38.679688 L 32 38.679688 Z M 32 33.109375 "/>
<path style=" stroke:none;fill-rule:nonzero;fill:rgb(92.156863%,92.156863%,92.156863%);fill-opacity:1;" d="M 32.035156 47.574219 L 32.007812 47.578125 L 25.808594 45.90625 L 25.410156 41.464844 L 19.820312 41.464844 L 20.601562 50.207031 L 32.007812 53.375 L 32.035156 53.367188 Z M 32.035156 47.574219 "/>
<path style=" stroke:none;fill-rule:nonzero;fill:rgb(100%,100%,100%);fill-opacity:1;" d="M 38.894531 38.441406 L 38.226562 45.902344 L 32.015625 47.578125 L 32.015625 53.371094 L 43.429688 50.207031 L 43.515625 49.265625 L 44.484375 38.441406 Z M 38.894531 38.441406 "/>
<path style=" stroke:none;fill-rule:nonzero;fill:rgb(92.156863%,92.156863%,92.156863%);fill-opacity:1;" d="M 32.019531 21.839844 L 32.019531 27.40625 L 18.566406 27.40625 L 18.457031 26.15625 L 18.203125 23.332031 L 18.070312 21.839844 Z M 32 33.109375 L 32 38.679688 L 25.875 38.679688 L 25.765625 37.429688 L 25.511719 34.605469 L 25.378906 33.109375 Z M 32 33.109375 "/>
</g>
</svg>
