<?xml version="1.0" encoding="UTF-8"?>
<svg xmlns="http://www.w3.org/2000/svg" xmlns:xlink="http://www.w3.org/1999/xlink" width="64pt" height="64pt" viewBox="0 0 64 64" version="1.1">
<g id="surface1">
<path style=" stroke:none;fill-rule:nonzero;fill:rgb(19.215686%,14.509804%,10.980392%);fill-opacity:1;" d="M 38.199219 27.839844 C 36.828125 27.839844 35.8125 28.511719 35.8125 30.128906 C 35.8125 31.347656 36.484375 32.191406 38.125 32.191406 C 39.515625 32.191406 40.464844 31.371094 40.464844 30.078125 C 40.464844 28.609375 39.617188 27.839844 38.199219 27.839844 Z M 35.464844 39.257812 C 35.140625 39.65625 34.816406 40.078125 34.816406 40.578125 C 34.816406 41.570312 36.085938 41.871094 37.828125 41.871094 C 39.269531 41.871094 41.234375 41.769531 41.234375 40.425781 C 41.234375 39.628906 40.289062 39.582031 39.09375 39.507812 Z M 42.824219 27.914062 C 43.273438 28.484375 43.746094 29.28125 43.746094 30.425781 C 43.746094 33.1875 41.582031 34.804688 38.449219 34.804688 C 37.652344 34.804688 36.929688 34.703125 36.480469 34.582031 L 35.660156 35.898438 L 38.097656 36.046875 C 42.402344 36.320312 44.941406 36.445312 44.941406 39.753906 C 44.941406 42.617188 42.425781 44.230469 38.097656 44.230469 C 33.59375 44.230469 31.878906 43.085938 31.878906 41.121094 C 31.878906 40.003906 32.378906 39.40625 33.246094 38.585938 C 32.425781 38.238281 32.152344 37.617188 32.152344 36.945312 C 32.152344 36.398438 32.425781 35.898438 32.875 35.425781 C 33.324219 34.953125 33.820312 34.480469 34.417969 33.933594 C 33.199219 33.335938 32.277344 32.042969 32.277344 30.203125 C 32.277344 27.339844 34.167969 25.375 37.972656 25.375 C 39.042969 25.375 39.691406 25.476562 40.261719 25.625 L 45.113281 25.625 L 45.113281 27.738281 Z M 49.492188 23.394531 C 48.074219 23.394531 47.253906 22.570312 47.253906 21.152344 C 47.253906 19.738281 48.074219 18.964844 49.492188 18.964844 C 50.933594 18.964844 51.753906 19.734375 51.753906 21.152344 C 51.753906 22.570312 50.933594 23.394531 49.492188 23.394531 Z M 46.28125 38.34375 L 46.28125 36.378906 L 47.550781 36.203125 C 47.898438 36.15625 47.949219 36.078125 47.949219 35.707031 L 47.949219 28.390625 C 47.949219 28.121094 47.875 27.945312 47.625 27.871094 L 46.28125 27.398438 L 46.554688 25.382812 L 51.707031 25.382812 L 51.707031 35.707031 C 51.707031 36.105469 51.730469 36.15625 52.101562 36.203125 L 53.371094 36.378906 L 53.371094 38.34375 Z M 63.210938 37.378906 C 62.140625 37.898438 60.574219 38.371094 59.152344 38.371094 C 56.195312 38.371094 55.074219 37.179688 55.074219 34.367188 L 55.074219 27.851562 C 55.074219 27.703125 55.074219 27.601562 54.875 27.601562 L 53.132812 27.601562 L 53.132812 25.386719 C 55.324219 25.136719 56.195312 24.042969 56.46875 21.332031 L 58.832031 21.332031 L 58.832031 24.867188 C 58.832031 25.039062 58.832031 25.113281 59.03125 25.113281 L 62.539062 25.113281 L 62.539062 27.601562 L 58.832031 27.601562 L 58.832031 33.546875 C 58.832031 35.015625 59.179688 35.585938 60.523438 35.585938 C 61.222656 35.585938 61.941406 35.414062 62.539062 35.1875 Z M 63.210938 37.378906 "/>
<path style=" stroke:none;fill-rule:nonzero;fill:rgb(95.294118%,30.980392%,16.078431%);fill-opacity:1;" d="M 26.351562 30.851562 L 14.976562 19.476562 C 14.320312 18.820312 13.257812 18.820312 12.601562 19.476562 L 10.242188 21.839844 L 13.238281 24.835938 C 13.933594 24.597656 14.730469 24.757812 15.285156 25.3125 C 15.84375 25.871094 16 26.675781 15.761719 27.375 L 18.648438 30.261719 C 19.347656 30.023438 20.152344 30.175781 20.710938 30.734375 C 21.492188 31.515625 21.492188 32.777344 20.710938 33.558594 C 19.929688 34.339844 18.667969 34.339844 17.886719 33.558594 C 17.300781 32.972656 17.15625 32.109375 17.453125 31.386719 L 14.757812 28.695312 L 14.757812 35.78125 C 14.949219 35.875 15.128906 36 15.285156 36.160156 C 16.066406 36.9375 16.066406 38.199219 15.285156 38.980469 C 14.507812 39.761719 13.242188 39.761719 12.464844 38.980469 C 11.683594 38.199219 11.683594 36.9375 12.464844 36.160156 C 12.65625 35.964844 12.878906 35.820312 13.117188 35.722656 L 13.117188 28.570312 C 12.878906 28.472656 12.65625 28.328125 12.464844 28.136719 C 11.871094 27.542969 11.730469 26.679688 12.035156 25.953125 L 9.082031 23 L 1.28125 30.796875 C 0.625 31.453125 0.625 32.515625 1.28125 33.171875 L 12.65625 44.546875 C 13.3125 45.199219 14.371094 45.199219 15.027344 44.546875 L 26.351562 33.222656 C 27.003906 32.566406 27.003906 31.503906 26.351562 30.851562 Z M 26.351562 30.851562 "/>
</g>
</svg>
