<?xml version="1.0" encoding="UTF-8"?>
<svg xmlns="http://www.w3.org/2000/svg" xmlns:xlink="http://www.w3.org/1999/xlink" width="64pt" height="64pt" viewBox="0 0 64 64" version="1.1">
<g id="surface1">
<path style=" stroke:none;fill-rule:evenodd;fill:rgb(9.411765%,8.627451%,8.627451%);fill-opacity:1;" d="M 32 0.757812 C 20.253906 0.757812 10.726562 10.28125 10.726562 22.027344 C 10.726562 31.425781 16.824219 39.402344 25.273438 42.214844 C 26.339844 42.410156 26.726562 41.753906 26.726562 41.191406 C 26.726562 40.683594 26.707031 39.007812 26.699219 37.230469 C 20.78125 38.515625 19.53125 34.71875 19.53125 34.71875 C 18.566406 32.261719 17.171875 31.605469 17.171875 31.605469 C 15.242188 30.285156 17.316406 30.3125 17.316406 30.3125 C 19.453125 30.464844 20.578125 32.507812 20.578125 32.507812 C 22.472656 35.757812 25.554688 34.816406 26.765625 34.273438 C 26.957031 32.898438 27.507812 31.960938 28.117188 31.429688 C 23.394531 30.890625 18.425781 29.066406 18.425781 20.917969 C 18.425781 18.59375 19.257812 16.695312 20.617188 15.207031 C 20.398438 14.671875 19.667969 12.507812 20.824219 9.578125 C 20.824219 9.578125 22.609375 9.003906 26.675781 11.757812 C 28.371094 11.285156 30.191406 11.050781 32 11.042969 C 33.808594 11.050781 35.628906 11.285156 37.328125 11.757812 C 41.386719 9.007812 43.171875 9.578125 43.171875 9.578125 C 44.328125 12.507812 43.601562 14.671875 43.382812 15.207031 C 44.746094 16.695312 45.570312 18.59375 45.570312 20.917969 C 45.570312 29.085938 40.59375 30.886719 35.855469 31.410156 C 36.621094 32.070312 37.300781 33.367188 37.300781 35.351562 C 37.300781 38.199219 37.277344 40.488281 37.277344 41.1875 C 37.277344 41.753906 37.660156 42.417969 38.738281 42.210938 C 47.183594 39.394531 53.273438 31.421875 53.273438 22.027344 C 53.273438 10.28125 43.75 0.757812 32 0.757812 Z M 32 0.757812 "/>
<path style=" stroke:none;fill-rule:nonzero;fill:rgb(9.411765%,8.627451%,8.627451%);fill-opacity:1;" d="M 18.785156 31.296875 C 18.738281 31.402344 18.570312 31.433594 18.421875 31.363281 C 18.265625 31.292969 18.179688 31.148438 18.230469 31.042969 C 18.273438 30.933594 18.441406 30.90625 18.59375 30.976562 C 18.75 31.046875 18.839844 31.191406 18.785156 31.296875 Z M 19.648438 32.261719 C 19.546875 32.351562 19.347656 32.308594 19.210938 32.160156 C 19.074219 32.011719 19.046875 31.8125 19.148438 31.71875 C 19.253906 31.625 19.445312 31.667969 19.585938 31.816406 C 19.722656 31.96875 19.753906 32.164062 19.644531 32.257812 Z M 20.484375 33.484375 C 20.355469 33.574219 20.140625 33.488281 20.011719 33.300781 C 19.878906 33.113281 19.878906 32.886719 20.011719 32.792969 C 20.144531 32.703125 20.355469 32.785156 20.488281 32.972656 C 20.617188 33.164062 20.617188 33.390625 20.484375 33.484375 Z M 21.632812 34.667969 C 21.515625 34.796875 21.269531 34.761719 21.085938 34.585938 C 20.902344 34.414062 20.851562 34.171875 20.964844 34.042969 C 21.085938 33.914062 21.335938 33.949219 21.515625 34.125 C 21.703125 34.296875 21.757812 34.539062 21.632812 34.667969 Z M 23.21875 35.355469 C 23.167969 35.523438 22.929688 35.597656 22.6875 35.527344 C 22.445312 35.453125 22.289062 35.257812 22.339844 35.089844 C 22.386719 34.921875 22.628906 34.84375 22.871094 34.921875 C 23.113281 34.992188 23.269531 35.183594 23.21875 35.355469 Z M 24.960938 35.484375 C 24.964844 35.65625 24.761719 35.804688 24.507812 35.804688 C 24.253906 35.8125 24.050781 35.671875 24.046875 35.496094 C 24.046875 35.320312 24.246094 35.175781 24.5 35.171875 C 24.753906 35.167969 24.960938 35.308594 24.960938 35.484375 Z M 26.578125 35.207031 C 26.609375 35.378906 26.433594 35.554688 26.183594 35.601562 C 25.9375 35.648438 25.707031 35.539062 25.675781 35.371094 C 25.648438 35.195312 25.824219 35.019531 26.070312 34.972656 C 26.324219 34.929688 26.546875 35.035156 26.578125 35.207031 Z M 26.578125 35.207031 "/>
<path style=" stroke:none;fill-rule:nonzero;fill:rgb(6.27451%,5.490196%,5.882353%);fill-opacity:1;" d="M 12.425781 54.152344 L 7.078125 54.152344 C 6.9375 54.152344 6.828125 54.261719 6.828125 54.402344 L 6.828125 57.015625 C 6.828125 57.15625 6.9375 57.265625 7.078125 57.265625 L 9.164062 57.265625 L 9.164062 60.515625 C 9.164062 60.515625 8.695312 60.675781 7.398438 60.675781 C 5.871094 60.675781 3.734375 60.117188 3.734375 55.421875 C 3.734375 50.726562 5.960938 50.109375 8.046875 50.109375 C 9.855469 50.109375 10.632812 50.425781 11.128906 50.578125 C 11.285156 50.625 11.429688 50.472656 11.429688 50.332031 L 12.023438 47.804688 C 12.027344 47.730469 11.992188 47.65625 11.929688 47.609375 C 11.726562 47.46875 10.5 46.78125 7.398438 46.78125 C 3.828125 46.78125 0.164062 48.300781 0.164062 55.605469 C 0.164062 62.910156 4.359375 64 7.894531 64 C 10.820312 64 12.597656 62.75 12.597656 62.75 C 12.667969 62.707031 12.675781 62.605469 12.675781 62.558594 L 12.675781 54.402344 C 12.675781 54.261719 12.566406 54.152344 12.425781 54.152344 Z M 39.753906 47.40625 L 36.738281 47.40625 C 36.671875 47.40625 36.609375 47.433594 36.5625 47.480469 C 36.515625 47.527344 36.492188 47.589844 36.492188 47.65625 L 36.492188 53.476562 L 31.796875 53.476562 L 31.796875 47.65625 C 31.796875 47.519531 31.6875 47.40625 31.546875 47.40625 L 28.535156 47.40625 C 28.46875 47.40625 28.40625 47.433594 28.359375 47.480469 C 28.3125 47.527344 28.285156 47.589844 28.285156 47.65625 L 28.285156 63.421875 C 28.285156 63.558594 28.398438 63.671875 28.535156 63.671875 L 31.546875 63.671875 C 31.613281 63.671875 31.675781 63.644531 31.722656 63.597656 C 31.769531 63.550781 31.796875 63.488281 31.796875 63.421875 L 31.796875 56.679688 L 36.492188 56.679688 L 36.484375 63.421875 C 36.484375 63.558594 36.597656 63.671875 36.734375 63.671875 L 39.753906 63.671875 C 39.820312 63.671875 39.882812 63.644531 39.929688 63.597656 C 39.976562 63.550781 40.003906 63.488281 40 63.421875 L 40 47.65625 C 40 47.515625 39.890625 47.40625 39.753906 47.40625 Z M 16.171875 47.761719 C 15.097656 47.761719 14.226562 48.640625 14.226562 49.726562 C 14.226562 50.808594 15.097656 51.6875 16.171875 51.6875 C 17.242188 51.6875 18.113281 50.808594 18.113281 49.726562 C 18.113281 48.640625 17.242188 47.761719 16.171875 47.761719 Z M 17.648438 52.566406 L 14.644531 52.566406 C 14.507812 52.566406 14.382812 52.710938 14.382812 52.847656 L 14.382812 63.273438 C 14.382812 63.578125 14.574219 63.671875 14.820312 63.671875 L 17.527344 63.671875 C 17.824219 63.671875 17.898438 63.523438 17.898438 63.269531 L 17.898438 52.820312 C 17.898438 52.679688 17.785156 52.570312 17.648438 52.566406 Z M 51.449219 52.589844 L 48.460938 52.589844 C 48.324219 52.59375 48.210938 52.703125 48.214844 52.84375 L 48.214844 60.574219 C 48.214844 60.574219 47.453125 61.128906 46.375 61.128906 C 45.296875 61.128906 45.011719 60.640625 45.011719 59.585938 L 45.011719 52.84375 C 45.011719 52.777344 44.988281 52.710938 44.941406 52.664062 C 44.894531 52.617188 44.828125 52.589844 44.761719 52.589844 L 41.730469 52.589844 C 41.589844 52.59375 41.480469 52.703125 41.480469 52.84375 L 41.480469 60.09375 C 41.480469 63.230469 43.226562 63.996094 45.632812 63.996094 C 47.601562 63.996094 49.195312 62.90625 49.195312 62.90625 C 49.195312 62.90625 49.269531 63.480469 49.304688 63.546875 C 49.339844 63.617188 49.425781 63.683594 49.523438 63.683594 L 51.453125 63.675781 C 51.59375 63.675781 51.703125 63.5625 51.703125 63.425781 L 51.703125 52.839844 C 51.703125 52.703125 51.589844 52.589844 51.453125 52.589844 Z M 59.621094 52.238281 C 57.925781 52.238281 56.769531 52.996094 56.769531 52.996094 L 56.769531 47.65625 C 56.769531 47.519531 56.660156 47.40625 56.519531 47.40625 L 53.5 47.40625 C 53.433594 47.40625 53.371094 47.429688 53.324219 47.476562 C 53.277344 47.527344 53.25 47.589844 53.25 47.65625 L 53.25 63.421875 C 53.25 63.488281 53.277344 63.550781 53.324219 63.597656 C 53.371094 63.644531 53.433594 63.671875 53.5 63.671875 L 55.597656 63.671875 C 55.691406 63.671875 55.761719 63.625 55.816406 63.539062 C 55.867188 63.453125 55.941406 62.8125 55.941406 62.8125 C 55.941406 62.8125 57.175781 63.980469 59.515625 63.980469 C 62.261719 63.980469 63.835938 62.589844 63.835938 57.730469 C 63.835938 52.871094 61.320312 52.238281 59.621094 52.238281 Z M 58.441406 61.117188 C 57.40625 61.085938 56.703125 60.617188 56.703125 60.617188 L 56.703125 55.625 C 56.703125 55.625 57.394531 55.199219 58.246094 55.121094 C 59.324219 55.027344 60.359375 55.351562 60.359375 57.917969 C 60.359375 60.628906 59.894531 61.164062 58.441406 61.117188 Z M 26.597656 61.058594 C 26.464844 61.058594 26.128906 61.113281 25.78125 61.113281 C 24.671875 61.113281 24.296875 60.597656 24.296875 59.929688 L 24.296875 55.496094 L 26.554688 55.496094 C 26.621094 55.496094 26.6875 55.46875 26.734375 55.421875 C 26.78125 55.375 26.804688 55.3125 26.804688 55.246094 L 26.804688 52.816406 C 26.804688 52.75 26.78125 52.6875 26.734375 52.640625 C 26.6875 52.59375 26.621094 52.566406 26.554688 52.566406 L 24.296875 52.566406 L 24.292969 49.582031 C 24.292969 49.46875 24.234375 49.410156 24.101562 49.410156 L 21.023438 49.410156 C 20.90625 49.410156 20.839844 49.464844 20.839844 49.578125 L 20.839844 52.664062 C 20.839844 52.664062 19.296875 53.035156 19.191406 53.066406 C 19.085938 53.097656 19.011719 53.195312 19.011719 53.304688 L 19.011719 55.242188 C 19.011719 55.382812 19.121094 55.496094 19.261719 55.496094 L 20.839844 55.496094 L 20.839844 60.160156 C 20.839844 63.625 23.269531 63.964844 24.910156 63.964844 C 25.660156 63.964844 26.554688 63.722656 26.703125 63.667969 C 26.792969 63.636719 26.84375 63.542969 26.84375 63.441406 L 26.847656 61.308594 C 26.84375 61.171875 26.734375 61.0625 26.597656 61.058594 Z M 26.597656 61.058594 "/>
</g>
</svg>
