<?xml version="1.0" encoding="UTF-8"?>
<svg xmlns="http://www.w3.org/2000/svg" xmlns:xlink="http://www.w3.org/1999/xlink" width="64pt" height="64pt" viewBox="0 0 64 64" version="1.1">
<g id="surface1">
<path style=" stroke:none;fill-rule:nonzero;fill:rgb(89.411765%,30.196078%,14.901961%);fill-opacity:1;" d="M 13.925781 58.175781 L 9.90625 13.070312 L 54.09375 13.070312 L 50.070312 58.171875 L 31.972656 63.1875 Z M 13.925781 58.175781 "/>
<path style=" stroke:none;fill-rule:nonzero;fill:rgb(94.509804%,39.607843%,16.078431%);fill-opacity:1;" d="M 32 59.351562 L 46.621094 55.296875 L 50.0625 16.761719 L 32 16.761719 Z M 32 59.351562 "/>
<path style=" stroke:none;fill-rule:nonzero;fill:rgb(92.156863%,92.156863%,92.156863%);fill-opacity:1;" d="M 32 33.488281 L 24.679688 33.488281 L 24.175781 27.824219 L 32 27.824219 L 32 22.292969 L 18.128906 22.292969 L 18.261719 23.777344 L 19.621094 39.019531 L 32 39.019531 Z M 32 47.855469 L 31.976562 47.863281 L 25.816406 46.199219 L 25.421875 41.785156 L 19.867188 41.785156 L 20.640625 50.472656 L 31.972656 53.617188 L 32 53.609375 Z M 32 47.855469 "/>
<path style=" stroke:none;fill-rule:nonzero;fill:rgb(0%,0%,0%);fill-opacity:1;" d="M 14.015625 0.8125 L 16.828125 0.8125 L 16.828125 3.589844 L 19.398438 3.589844 L 19.398438 0.8125 L 22.210938 0.8125 L 22.210938 9.222656 L 19.398438 9.222656 L 19.398438 6.40625 L 16.828125 6.40625 L 16.828125 9.222656 L 14.015625 9.222656 Z M 25.90625 3.601562 L 23.433594 3.601562 L 23.433594 0.8125 L 31.195312 0.8125 L 31.195312 3.601562 L 28.71875 3.601562 L 28.71875 9.222656 L 25.90625 9.222656 Z M 32.425781 0.8125 L 35.359375 0.8125 L 37.160156 3.769531 L 38.964844 0.8125 L 41.894531 0.8125 L 41.894531 9.222656 L 39.09375 9.222656 L 39.09375 5.054688 L 37.160156 8.046875 L 37.113281 8.046875 L 35.179688 5.054688 L 35.179688 9.222656 L 32.425781 9.222656 Z M 43.296875 0.8125 L 46.109375 0.8125 L 46.109375 6.445312 L 50.0625 6.445312 L 50.0625 9.226562 L 43.296875 9.226562 Z M 43.296875 0.8125 "/>
<path style=" stroke:none;fill-rule:nonzero;fill:rgb(100%,100%,100%);fill-opacity:1;" d="M 31.980469 33.488281 L 31.980469 39.019531 L 38.792969 39.019531 L 38.152344 46.195312 L 31.980469 47.859375 L 31.980469 53.617188 L 43.320312 50.472656 L 43.40625 49.539062 L 44.703125 34.972656 L 44.839844 33.488281 Z M 31.980469 22.292969 L 31.980469 27.824219 L 45.34375 27.824219 L 45.453125 26.578125 L 45.707031 23.777344 L 45.839844 22.292969 Z M 31.980469 22.292969 "/>
</g>
</svg>
