<?xml version="1.0" encoding="UTF-8"?>
<svg xmlns="http://www.w3.org/2000/svg" xmlns:xlink="http://www.w3.org/1999/xlink" width="64pt" height="64pt" viewBox="0 0 64 64" version="1.1">
<g id="surface1">
<path style=" stroke:none;fill-rule:nonzero;fill:rgb(94.117647%,85.882353%,30.980392%);fill-opacity:1;" d="M 0.703125 0.703125 L 63.296875 0.703125 L 63.296875 63.296875 L 0.703125 63.296875 Z M 0.703125 0.703125 "/>
<path style=" stroke:none;fill-rule:nonzero;fill:rgb(19.607843%,20%,18.823529%);fill-opacity:1;" d="M 58.171875 48.367188 C 57.714844 45.511719 55.851562 43.113281 50.335938 40.878906 C 48.421875 39.996094 46.285156 39.367188 45.648438 37.914062 C 45.421875 37.070312 45.394531 36.59375 45.535156 36.082031 C 45.945312 34.421875 47.929688 33.90625 49.5 34.378906 C 50.511719 34.71875 51.46875 35.5 52.046875 36.742188 C 54.746094 34.992188 54.742188 35.003906 56.625 33.804688 C 55.9375 32.734375 55.566406 32.238281 55.117188 31.78125 C 53.492188 29.964844 51.277344 29.03125 47.738281 29.101562 L 45.894531 29.339844 C 44.125 29.789062 42.441406 30.714844 41.453125 31.960938 C 38.492188 35.320312 39.335938 41.203125 42.941406 43.625 C 46.496094 46.292969 51.710938 46.898438 52.378906 49.390625 C 53.027344 52.445312 50.136719 53.433594 47.261719 53.082031 C 45.144531 52.640625 43.964844 51.5625 42.691406 49.605469 C 40.347656 50.964844 40.347656 50.964844 37.9375 52.347656 C 38.511719 53.597656 39.109375 54.164062 40.070312 55.246094 C 44.601562 59.84375 55.949219 59.621094 57.984375 52.660156 C 58.066406 52.417969 58.613281 50.824219 58.171875 48.367188 Z M 34.730469 29.472656 L 28.875 29.472656 L 28.851562 44.609375 C 28.851562 47.828125 29.019531 50.777344 28.496094 51.683594 C 27.640625 53.460938 25.417969 53.242188 24.40625 52.894531 C 23.378906 52.390625 22.855469 51.671875 22.25 50.652344 C 22.082031 50.359375 21.957031 50.136719 21.914062 50.117188 L 17.15625 53.03125 C 17.945312 54.65625 19.113281 56.066406 20.605469 56.984375 C 22.835938 58.320312 25.835938 58.734375 28.972656 58.011719 C 31.011719 57.417969 32.773438 56.1875 33.695312 54.3125 C 35.027344 51.855469 34.742188 48.878906 34.730469 45.589844 C 34.761719 40.222656 34.730469 34.855469 34.730469 29.472656 Z M 34.730469 29.472656 "/>
</g>
</svg>
