<?xml version="1.0" encoding="UTF-8"?>
<svg xmlns="http://www.w3.org/2000/svg" xmlns:xlink="http://www.w3.org/1999/xlink" width="64pt" height="64pt" viewBox="0 0 64 64" version="1.1">
<g id="surface1">
<path style=" stroke:none;fill-rule:nonzero;fill:rgb(0%,0%,0%);fill-opacity:1;" d="M 0.425781 26.363281 L 2.894531 26.363281 L 2.894531 35.355469 L 7.464844 35.355469 L 7.464844 37.636719 L 0.425781 37.636719 Z M 0.425781 26.363281 "/>
<path style=" stroke:none;fill-rule:nonzero;fill:rgb(0%,0%,0%);fill-opacity:1;" d="M 8.554688 30 L 10.925781 30 L 10.925781 37.628906 L 8.554688 37.628906 Z M 9.738281 26.203125 C 10.5 26.203125 11.113281 26.820312 11.113281 27.578125 C 11.113281 28.339844 10.5 28.953125 9.738281 28.953125 C 8.980469 28.953125 8.363281 28.339844 8.363281 27.578125 C 8.363281 26.820312 8.980469 26.203125 9.738281 26.203125 "/>
<path style=" stroke:none;fill-rule:nonzero;fill:rgb(0%,0%,0%);fill-opacity:1;" d="M 20.84375 26.363281 L 23.214844 26.363281 L 23.214844 33.101562 L 25.90625 29.988281 L 28.808594 29.988281 L 25.699219 33.523438 L 28.746094 37.636719 L 25.765625 37.636719 L 23.246094 33.859375 L 23.214844 33.859375 L 23.214844 37.636719 L 20.84375 37.636719 Z M 20.84375 26.363281 "/>
<path style=" stroke:none;fill-rule:nonzero;fill:rgb(0%,0%,0%);fill-opacity:1;" d="M 12.238281 30 L 14.5 30 L 14.5 31.046875 L 14.53125 31.046875 C 14.996094 30.253906 15.855469 29.777344 16.773438 29.808594 C 19.179688 29.808594 19.621094 31.390625 19.621094 33.445312 L 19.621094 37.636719 L 17.269531 37.636719 L 17.269531 33.921875 C 17.269531 33.035156 17.269531 31.921875 16.035156 31.921875 C 14.800781 31.921875 14.609375 32.886719 14.609375 33.878906 L 14.609375 37.65625 L 12.238281 37.65625 Z M 12.238281 30 "/>
<path style=" stroke:none;fill-rule:nonzero;fill:rgb(0%,0%,0%);fill-opacity:1;" d="M 33.804688 32.925781 C 33.816406 32.535156 33.664062 32.160156 33.390625 31.886719 C 33.113281 31.609375 32.738281 31.460938 32.351562 31.46875 C 31.488281 31.414062 30.742188 32.0625 30.675781 32.925781 Z M 35.804688 36.308594 C 35.003906 37.269531 33.816406 37.820312 32.566406 37.808594 C 30.195312 37.808594 28.296875 36.230469 28.296875 33.773438 C 28.296875 31.320312 30.195312 29.746094 32.566406 29.746094 C 34.78125 29.746094 36.171875 31.324219 36.171875 33.773438 L 36.171875 34.519531 L 30.671875 34.519531 C 30.804688 35.398438 31.566406 36.039062 32.453125 36.019531 C 33.140625 36.019531 33.78125 35.667969 34.144531 35.085938 Z M 35.804688 36.308594 "/>
<path style=" stroke:none;fill-rule:nonzero;fill:rgb(0%,0%,0%);fill-opacity:1;" d="M 41.113281 31.839844 C 40.324219 31.816406 39.597656 32.273438 39.277344 33 C 38.957031 33.722656 39.105469 34.570312 39.660156 35.136719 C 40.210938 35.707031 41.050781 35.882812 41.785156 35.585938 C 42.519531 35.289062 43 34.578125 43 33.785156 C 43.042969 33.265625 42.859375 32.753906 42.492188 32.378906 C 42.128906 32.007812 41.621094 31.808594 41.101562 31.839844 M 45.199219 37.628906 L 43 37.628906 L 43 36.628906 C 42.441406 37.371094 41.574219 37.816406 40.644531 37.828125 C 38.363281 37.828125 36.863281 36.183594 36.863281 33.859375 C 36.863281 31.726562 38.195312 29.765625 40.363281 29.765625 C 41.289062 29.683594 42.199219 30.054688 42.800781 30.765625 L 42.828125 30.765625 L 42.828125 26.363281 L 45.199219 26.363281 Z M 45.199219 37.628906 "/>
<path style=" stroke:none;fill-rule:nonzero;fill:rgb(0%,0%,0%);fill-opacity:1;" d="M 62.390625 24 L 48.753906 24 C 48.109375 23.996094 47.582031 24.511719 47.574219 25.15625 L 47.574219 38.84375 C 47.582031 39.488281 48.109375 40.003906 48.753906 40 L 62.390625 40 C 63.035156 40.007812 63.566406 39.492188 63.574219 38.84375 L 63.574219 25.15625 C 63.566406 24.507812 63.035156 23.992188 62.390625 24 Z M 62.390625 24 "/>
<path style=" stroke:none;fill-rule:nonzero;fill:rgb(0%,0%,0%);fill-opacity:1;" d="M 49.945312 30 L 52.320312 30 L 52.320312 37.636719 L 49.945312 37.636719 Z M 51.128906 26.203125 C 51.890625 26.203125 52.503906 26.820312 52.503906 27.578125 C 52.503906 28.339844 51.890625 28.953125 51.128906 28.953125 C 50.371094 28.953125 49.753906 28.339844 49.753906 27.578125 C 49.753906 26.820312 50.371094 26.203125 51.128906 26.203125 "/>
<path style=" stroke:none;fill-rule:nonzero;fill:rgb(0%,0%,0%);fill-opacity:1;" d="M 53.804688 30 L 56.078125 30 L 56.078125 31.046875 L 56.109375 31.046875 C 56.574219 30.253906 57.4375 29.777344 58.355469 29.808594 C 60.761719 29.808594 61.199219 31.390625 61.199219 33.445312 L 61.199219 37.636719 L 58.828125 37.636719 L 58.828125 33.921875 C 58.828125 33.035156 58.828125 31.921875 57.59375 31.921875 C 56.359375 31.921875 56.171875 32.886719 56.171875 33.878906 L 56.171875 37.65625 L 53.800781 37.65625 Z M 53.804688 30 "/>
</g>
</svg>
