<?xml version="1.0" encoding="UTF-8"?>
<svg xmlns="http://www.w3.org/2000/svg" xmlns:xlink="http://www.w3.org/1999/xlink" width="64pt" height="64pt" viewBox="0 0 64 64" version="1.1">
<g id="surface1">
<path style=" stroke:none;fill-rule:evenodd;fill:rgb(58.039216%,47.45098%,36.470588%);fill-opacity:1;" d="M 43.628906 50.070312 C 43.714844 49.90625 43.796875 49.761719 43.863281 49.613281 C 43.90625 49.519531 43.972656 49.5 44.070312 49.503906 C 44.636719 49.519531 45.203125 49.535156 45.769531 49.542969 C 46.25 49.546875 46.734375 49.539062 47.214844 49.53125 C 47.757812 49.527344 48.300781 49.496094 48.84375 49.511719 C 49.566406 49.535156 50.269531 49.675781 50.921875 49.996094 C 51.703125 50.382812 52.292969 50.96875 52.695312 51.738281 C 52.953125 52.230469 53.101562 52.753906 53.164062 53.308594 C 53.25 54.113281 53.191406 54.898438 52.9375 55.667969 C 52.621094 56.621094 52.019531 57.351562 51.1875 57.898438 C 50.546875 58.316406 49.84375 58.566406 49.089844 58.707031 C 48.289062 58.859375 47.488281 58.808594 46.691406 58.8125 C 45.8125 58.816406 44.933594 58.796875 44.054688 58.785156 C 43.902344 58.785156 43.878906 58.757812 43.921875 58.609375 L 43.957031 58.472656 C 44.042969 58.207031 44.089844 58.195312 44.363281 58.148438 C 44.550781 58.117188 44.746094 58.046875 44.90625 57.941406 C 45 57.882812 45.035156 57.722656 45.074219 57.597656 C 45.101562 57.492188 45.105469 57.375 45.105469 57.261719 C 45.117188 55.550781 45.132812 53.835938 45.136719 52.125 C 45.140625 51.695312 45.128906 51.261719 45.105469 50.828125 C 45.089844 50.527344 44.925781 50.320312 44.566406 50.246094 C 44.289062 50.191406 44.003906 50.148438 43.722656 50.097656 Z M 51.667969 54.214844 C 51.628906 53.875 51.609375 53.53125 51.550781 53.195312 C 51.402344 52.386719 51.050781 51.6875 50.429688 51.136719 C 49.429688 50.246094 48.222656 50.109375 46.957031 50.214844 C 46.667969 50.238281 46.605469 50.335938 46.601562 50.632812 C 46.59375 51.054688 46.589844 51.472656 46.585938 51.894531 C 46.585938 53.226562 46.585938 54.558594 46.585938 55.890625 C 46.589844 56.269531 46.59375 56.648438 46.601562 57.027344 C 46.613281 57.414062 46.753906 57.738281 47.132812 57.890625 C 47.730469 58.125 48.359375 58.15625 48.988281 58.058594 C 49.988281 57.90625 50.691406 57.320312 51.160156 56.445312 C 51.53125 55.753906 51.636719 54.996094 51.667969 54.214844 Z M 54.101562 58.75 C 54.089844 58.542969 54.175781 58.371094 54.28125 58.214844 C 54.308594 58.171875 54.40625 58.175781 54.472656 58.160156 L 55.046875 58.046875 C 55.25 58.003906 55.355469 57.867188 55.382812 57.671875 C 55.402344 57.539062 55.421875 57.40625 55.421875 57.273438 C 55.433594 56.226562 55.449219 55.175781 55.453125 54.128906 C 55.457031 53.078125 55.453125 52.027344 55.453125 50.976562 L 55.449219 50.777344 C 55.429688 50.441406 55.265625 50.265625 54.929688 50.214844 L 54.203125 50.105469 C 54.113281 50.09375 54.082031 50.050781 54.113281 49.972656 C 54.171875 49.835938 54.222656 49.695312 54.304688 49.574219 C 54.332031 49.527344 54.433594 49.511719 54.5 49.511719 C 54.847656 49.515625 55.191406 49.542969 55.539062 49.542969 L 58.558594 49.523438 C 59.140625 49.523438 59.703125 49.625 60.226562 49.902344 C 60.800781 50.210938 61.121094 50.683594 61.214844 51.328125 C 61.308594 52.007812 61.105469 52.578125 60.609375 53.03125 C 60.40625 53.21875 60.144531 53.339844 59.90625 53.492188 L 59.828125 53.539062 C 60.050781 53.621094 60.257812 53.691406 60.460938 53.773438 C 61.054688 54.015625 61.527344 54.398438 61.777344 55.003906 C 61.972656 55.484375 61.972656 55.984375 61.859375 56.480469 C 61.675781 57.257812 61.164062 57.777344 60.496094 58.167969 C 59.871094 58.535156 59.195312 58.75 58.472656 58.785156 C 57.808594 58.820312 57.140625 58.804688 56.472656 58.8125 L 56.085938 58.816406 C 55.445312 58.800781 54.804688 58.785156 54.160156 58.765625 Z M 56.871094 55.707031 L 56.878906 55.707031 C 56.878906 56.035156 56.871094 56.363281 56.878906 56.695312 C 56.882812 56.90625 56.875 57.125 56.921875 57.332031 C 56.988281 57.636719 57.128906 57.914062 57.472656 58.003906 C 57.9375 58.121094 58.414062 58.144531 58.882812 58.0625 C 59.472656 57.960938 59.941406 57.667969 60.199219 57.105469 C 60.390625 56.691406 60.417969 56.246094 60.351562 55.796875 C 60.265625 55.203125 59.949219 54.773438 59.425781 54.488281 C 59.082031 54.304688 58.714844 54.191406 58.324219 54.175781 C 57.886719 54.160156 57.445312 54.15625 57.007812 54.144531 C 56.886719 54.140625 56.867188 54.203125 56.871094 54.304688 C 56.871094 54.773438 56.871094 55.238281 56.871094 55.707031 Z M 57.804688 53.46875 C 58.042969 53.457031 58.3125 53.453125 58.582031 53.425781 C 59.097656 53.375 59.460938 53.117188 59.652344 52.621094 C 59.75 52.371094 59.746094 52.113281 59.746094 51.851562 C 59.753906 51.175781 59.359375 50.617188 58.714844 50.390625 C 58.214844 50.210938 57.703125 50.207031 57.1875 50.222656 C 56.976562 50.226562 56.886719 50.320312 56.882812 50.53125 L 56.851562 53.273438 C 56.847656 53.382812 56.898438 53.429688 57.003906 53.433594 Z M 57.804688 53.46875 "/>
<path style=" stroke:none;fill-rule:evenodd;fill:rgb(31.372549%,21.960784%,16.862745%);fill-opacity:1;" d="M 5.273438 58.222656 L 5.234375 58.695312 C 4.894531 58.695312 4.582031 58.695312 4.269531 58.695312 C 3.675781 58.703125 3.085938 58.710938 2.496094 58.722656 L 2.4375 58.722656 C 2.355469 58.714844 2.199219 58.714844 2.195312 58.691406 C 2.171875 58.550781 2.179688 58.402344 2.1875 58.257812 C 2.1875 58.238281 2.246094 58.21875 2.277344 58.210938 L 2.738281 58.109375 C 3.023438 58.035156 3.125 57.910156 3.136719 57.613281 C 3.152344 57.28125 3.167969 56.945312 3.171875 56.613281 C 3.175781 55.792969 3.171875 54.972656 3.175781 54.152344 C 3.175781 53.960938 3.109375 53.816406 2.929688 53.738281 C 2.714844 53.644531 2.503906 53.550781 2.285156 53.464844 C 2.183594 53.425781 2.050781 53.402344 2.0625 53.265625 C 2.074219 53.125 2.203125 53.089844 2.324219 53.0625 C 2.828125 52.945312 3.328125 52.835938 3.828125 52.714844 C 3.988281 52.671875 4.140625 52.605469 4.335938 52.539062 C 4.34375 52.644531 4.363281 52.742188 4.363281 52.84375 L 4.332031 53.3125 C 4.332031 53.367188 4.359375 53.4375 4.398438 53.464844 C 4.421875 53.484375 4.503906 53.449219 4.542969 53.421875 C 4.96875 53.09375 5.421875 52.816406 5.9375 52.652344 C 6.734375 52.398438 7.421875 52.632812 7.902344 53.320312 C 8.070312 53.5625 8.070312 53.5625 8.304688 53.394531 C 8.707031 53.101562 9.128906 52.84375 9.601562 52.671875 C 10.632812 52.300781 11.628906 52.773438 11.988281 53.816406 C 12.117188 54.195312 12.167969 54.585938 12.167969 54.984375 L 12.15625 57.632812 C 12.15625 57.851562 12.230469 57.976562 12.4375 58.042969 C 12.671875 58.121094 12.914062 58.171875 13.175781 58.242188 L 13.113281 58.695312 C 12.816406 58.695312 12.539062 58.695312 12.265625 58.695312 C 11.59375 58.703125 10.921875 58.707031 10.25 58.722656 C 10.132812 58.726562 10.101562 58.695312 10.097656 58.585938 C 10.078125 58.234375 10.074219 58.238281 10.40625 58.15625 L 10.515625 58.128906 C 10.839844 58.039062 10.945312 57.941406 10.949219 57.613281 C 10.957031 56.675781 10.976562 55.734375 10.925781 54.796875 C 10.878906 53.824219 10.105469 53.308594 9.164062 53.558594 C 8.855469 53.636719 8.578125 53.78125 8.320312 53.964844 C 8.230469 54.027344 8.214844 54.097656 8.222656 54.207031 C 8.25 54.621094 8.265625 55.035156 8.269531 55.449219 C 8.273438 56.175781 8.265625 56.902344 8.269531 57.628906 C 8.269531 57.921875 8.371094 58.035156 8.660156 58.101562 L 9.09375 58.203125 L 9.171875 58.21875 C 9.179688 58.359375 9.183594 58.496094 9.175781 58.632812 C 9.171875 58.71875 9.105469 58.726562 9.03125 58.726562 C 8.613281 58.714844 8.191406 58.703125 7.773438 58.703125 C 7.261719 58.703125 6.753906 58.71875 6.242188 58.726562 L 6.121094 58.726562 C 6.121094 58.582031 6.113281 58.441406 6.128906 58.300781 C 6.128906 58.269531 6.1875 58.222656 6.230469 58.210938 L 6.730469 58.105469 C 6.945312 58.050781 7.046875 57.941406 7.058594 57.726562 C 7.117188 56.71875 7.15625 55.714844 7.0625 54.710938 C 7.042969 54.515625 6.980469 54.316406 6.898438 54.136719 C 6.640625 53.570312 6.0625 53.332031 5.394531 53.503906 C 5.078125 53.582031 4.789062 53.726562 4.519531 53.910156 C 4.390625 54 4.332031 54.113281 4.332031 54.257812 C 4.332031 55.261719 4.335938 56.265625 4.335938 57.265625 L 4.34375 57.652344 C 4.347656 57.921875 4.464844 58.066406 4.730469 58.121094 C 4.902344 58.160156 5.078125 58.1875 5.273438 58.222656 Z M 5.273438 58.222656 "/>
<path style=" stroke:none;fill-rule:evenodd;fill:rgb(30.980392%,21.960784%,16.862745%);fill-opacity:1;" d="M 35.5 52.640625 C 35.578125 53.019531 35.578125 53.359375 35.300781 53.617188 C 35.023438 53.871094 34.675781 53.785156 34.335938 53.726562 C 34.367188 53.90625 34.402344 54.058594 34.421875 54.214844 C 34.542969 55.359375 34.050781 56.207031 32.988281 56.691406 C 32.589844 56.875 32.164062 56.945312 31.730469 56.976562 C 31.511719 56.996094 31.324219 57.160156 31.304688 57.339844 C 31.28125 57.519531 31.394531 57.703125 31.621094 57.757812 C 31.886719 57.820312 32.164062 57.839844 32.441406 57.871094 C 33.027344 57.9375 33.621094 57.96875 34.199219 58.074219 C 35.078125 58.230469 35.566406 58.996094 35.410156 59.878906 C 35.273438 60.660156 34.820312 61.230469 34.1875 61.667969 C 33.121094 62.40625 31.949219 62.625 30.703125 62.246094 C 29.992188 62.03125 29.488281 61.5625 29.316406 60.804688 C 29.230469 60.425781 29.320312 60.082031 29.609375 59.824219 C 29.945312 59.519531 30.316406 59.246094 30.671875 58.960938 L 30.785156 58.84375 L 30.65625 58.75 C 30.292969 58.578125 30.003906 58.34375 29.890625 57.933594 C 29.851562 57.796875 29.890625 57.703125 30.007812 57.632812 C 30.210938 57.511719 30.40625 57.390625 30.605469 57.265625 C 30.699219 57.207031 30.789062 57.148438 30.878906 57.082031 C 30.996094 56.992188 30.984375 56.925781 30.84375 56.871094 C 30.515625 56.75 30.222656 56.574219 29.996094 56.304688 C 29.621094 55.855469 29.511719 55.320312 29.542969 54.753906 C 29.59375 53.867188 30.074219 53.285156 30.855469 52.910156 C 31.78125 52.464844 32.714844 52.4375 33.660156 52.84375 C 34.011719 52.992188 34.378906 53.023438 34.753906 52.996094 C 35.035156 52.976562 35.28125 52.871094 35.5 52.640625 Z M 32.078125 58.984375 C 31.382812 58.976562 31.164062 59.0625 30.753906 59.480469 C 30.296875 59.945312 30.300781 60.59375 30.757812 61.0625 C 31.101562 61.417969 31.535156 61.585938 32.015625 61.636719 C 32.578125 61.691406 33.132812 61.667969 33.644531 61.386719 C 34.191406 61.085938 34.460938 60.527344 34.339844 59.960938 C 34.238281 59.496094 33.894531 59.285156 33.476562 59.160156 C 33 59.023438 32.511719 58.996094 32.078125 58.984375 Z M 30.710938 54.527344 C 30.734375 54.722656 30.746094 54.917969 30.789062 55.109375 C 30.902344 55.597656 31.113281 56.03125 31.601562 56.25 C 32.175781 56.507812 32.910156 56.394531 33.160156 55.589844 C 33.332031 55.039062 33.308594 54.492188 33.101562 53.953125 C 33.011719 53.714844 32.863281 53.511719 32.648438 53.363281 C 32.148438 53.015625 31.25 52.96875 30.886719 53.738281 C 30.765625 53.984375 30.71875 54.25 30.710938 54.527344 Z M 30.710938 54.527344 "/>
<path style=" stroke:none;fill-rule:evenodd;fill:rgb(30.980392%,21.568627%,16.862745%);fill-opacity:1;" d="M 23.675781 52.519531 C 23.695312 52.605469 23.730469 52.703125 23.730469 52.800781 C 23.734375 52.984375 23.714844 53.171875 23.703125 53.355469 L 23.703125 53.515625 L 23.859375 53.398438 C 24.289062 53.042969 24.75 52.742188 25.289062 52.578125 C 26.261719 52.285156 27.230469 52.816406 27.546875 53.804688 C 27.667969 54.183594 27.714844 54.570312 27.71875 54.960938 C 27.730469 55.835938 27.734375 56.707031 27.742188 57.582031 C 27.746094 57.894531 27.78125 57.949219 28.078125 58.039062 C 28.246094 58.09375 28.421875 58.128906 28.59375 58.15625 C 28.691406 58.171875 28.730469 58.207031 28.726562 58.300781 L 28.726562 58.386719 C 28.722656 58.75 28.699219 58.765625 28.347656 58.765625 C 27.507812 58.761719 26.671875 58.769531 25.832031 58.773438 C 25.582031 58.777344 25.582031 58.785156 25.554688 58.539062 L 25.550781 58.394531 C 25.566406 58.183594 25.570312 58.183594 25.78125 58.152344 C 25.921875 58.132812 26.0625 58.101562 26.199219 58.0625 C 26.339844 58.027344 26.410156 57.921875 26.429688 57.78125 C 26.4375 57.710938 26.449219 57.640625 26.449219 57.570312 C 26.4375 56.617188 26.453125 55.660156 26.402344 54.707031 C 26.359375 53.9375 25.769531 53.480469 24.996094 53.53125 C 24.617188 53.558594 24.273438 53.683594 23.960938 53.902344 C 23.753906 54.046875 23.714844 54.257812 23.714844 54.480469 C 23.71875 55.371094 23.726562 56.265625 23.738281 57.15625 C 23.738281 57.351562 23.746094 57.546875 23.761719 57.742188 C 23.78125 57.953125 23.855469 58.039062 24.066406 58.085938 C 24.265625 58.128906 24.46875 58.15625 24.679688 58.191406 L 24.699219 58.355469 C 24.703125 58.738281 24.664062 58.765625 24.292969 58.765625 C 23.425781 58.761719 22.558594 58.765625 21.691406 58.777344 C 21.554688 58.777344 21.496094 58.734375 21.5 58.601562 L 21.496094 58.542969 C 21.476562 58.199219 21.484375 58.1875 21.8125 58.132812 L 21.964844 58.101562 C 22.320312 58.019531 22.410156 57.925781 22.414062 57.566406 C 22.429688 56.433594 22.4375 55.296875 22.449219 54.160156 C 22.449219 54 22.386719 53.871094 22.234375 53.804688 C 22.023438 53.710938 21.808594 53.621094 21.59375 53.53125 C 21.472656 53.484375 21.335938 53.453125 21.332031 53.289062 C 21.328125 53.171875 21.453125 53.070312 21.625 53.035156 C 21.964844 52.964844 22.308594 52.910156 22.644531 52.824219 C 22.980469 52.742188 23.308594 52.628906 23.675781 52.519531 Z M 23.675781 52.519531 "/>
<path style=" stroke:none;fill-rule:evenodd;fill:rgb(30.980392%,21.960784%,16.862745%);fill-opacity:1;" d="M 42.433594 55.484375 C 42.417969 56.546875 42.140625 57.402344 41.390625 58.046875 C 40.441406 58.863281 38.960938 59.140625 37.746094 58.53125 C 37.230469 58.269531 36.851562 57.871094 36.601562 57.351562 C 36.222656 56.554688 36.128906 55.714844 36.328125 54.855469 C 36.523438 54.007812 37.035156 53.390625 37.808594 52.992188 C 38.597656 52.582031 39.433594 52.421875 40.3125 52.636719 C 41.425781 52.910156 42.222656 53.816406 42.382812 54.972656 C 42.410156 55.175781 42.421875 55.378906 42.433594 55.484375 Z M 41.144531 56.058594 L 41.101562 56.054688 C 41.101562 55.953125 41.105469 55.855469 41.101562 55.753906 C 41.0625 55.132812 40.921875 54.539062 40.5625 54.015625 C 40.21875 53.523438 39.753906 53.230469 39.148438 53.1875 C 38.46875 53.140625 37.894531 53.519531 37.695312 54.214844 C 37.394531 55.257812 37.496094 56.273438 38.027344 57.226562 C 38.257812 57.640625 38.597656 57.949219 39.054688 58.109375 C 39.953125 58.425781 40.746094 58.019531 40.980469 57.101562 C 41.066406 56.761719 41.089844 56.40625 41.144531 56.058594 Z M 41.144531 56.058594 "/>
<path style=" stroke:none;fill-rule:evenodd;fill:rgb(30.980392%,21.568627%,16.862745%);fill-opacity:1;" d="M 20.410156 55.566406 C 20.390625 56.328125 20.210938 57.03125 19.742188 57.644531 C 19.238281 58.296875 18.546875 58.648438 17.757812 58.796875 C 16.828125 58.96875 15.953125 58.8125 15.207031 58.1875 C 14.851562 57.890625 14.609375 57.507812 14.449219 57.078125 C 14.1875 56.367188 14.121094 55.640625 14.28125 54.898438 C 14.457031 54.105469 14.902344 53.496094 15.597656 53.089844 C 16.402344 52.621094 17.265625 52.410156 18.191406 52.621094 C 19.382812 52.894531 20.070312 53.671875 20.324219 54.84375 C 20.375 55.082031 20.382812 55.324219 20.410156 55.566406 Z M 19.105469 56.070312 L 19.070312 56.0625 L 19.070312 55.921875 C 19.050781 55.222656 18.914062 54.558594 18.5 53.976562 C 18.191406 53.546875 17.777344 53.277344 17.25 53.203125 C 16.386719 53.078125 15.820312 53.589844 15.632812 54.285156 C 15.390625 55.195312 15.46875 56.09375 15.84375 56.953125 C 16.078125 57.492188 16.453125 57.910156 17.023438 58.113281 C 17.914062 58.429688 18.722656 58.011719 18.945312 57.09375 C 19.03125 56.761719 19.054688 56.410156 19.105469 56.070312 Z M 19.105469 56.070312 "/>
<path style=" stroke:none;fill-rule:evenodd;fill:rgb(26.27451%,60%,20.392157%);fill-opacity:1;" d="M 41.179688 16.773438 C 41.792969 18.546875 42.234375 20.355469 42.382812 22.230469 C 42.5625 24.558594 42.480469 26.871094 41.988281 29.160156 L 41.925781 29.34375 C 41.769531 29.34375 41.613281 29.324219 41.464844 29.347656 C 40.191406 29.550781 38.921875 29.757812 37.652344 29.960938 C 36.339844 30.175781 35.023438 30.378906 33.710938 30.605469 C 33.246094 30.6875 32.671875 30.589844 32.484375 31.234375 L 32.394531 31.261719 L 32.460938 27.425781 L 32.394531 18.160156 L 33.007812 18.054688 C 34.007812 17.894531 35.007812 17.726562 36.007812 17.566406 C 37.203125 17.378906 38.402344 17.191406 39.597656 17.007812 C 40.125 16.925781 40.652344 16.851562 41.179688 16.773438 Z M 41.179688 16.773438 "/>
<path style=" stroke:none;fill-rule:evenodd;fill:rgb(27.058824%,64.705882%,21.960784%);fill-opacity:1;" d="M 31.132812 42.457031 C 30.488281 41.902344 29.820312 41.371094 29.199219 40.785156 C 25.871094 37.644531 23.4375 33.949219 22.238281 29.492188 C 21.90625 28.265625 21.6875 27.019531 21.613281 25.753906 C 21.566406 24.867188 21.492188 23.972656 21.554688 23.089844 C 21.722656 20.742188 22.0625 18.417969 22.75 16.160156 L 22.789062 16.105469 C 22.855469 16.195312 22.953125 16.273438 22.984375 16.375 C 23.65625 18.351562 24.324219 20.332031 24.988281 22.3125 C 27.070312 28.539062 29.152344 34.765625 31.242188 40.992188 C 31.28125 41.113281 31.386719 41.210938 31.464844 41.320312 Z M 31.132812 42.457031 "/>
<path style=" stroke:none;fill-rule:evenodd;fill:rgb(27.45098%,62.745098%,21.568627%);fill-opacity:1;" d="M 41.179688 16.773438 C 40.652344 16.851562 40.125 16.925781 39.597656 17.007812 C 38.402344 17.191406 37.203125 17.378906 36.007812 17.566406 C 35.007812 17.726562 34.007812 17.890625 33.007812 18.054688 L 32.394531 18.160156 L 32.390625 17.761719 C 32.367188 17.433594 32.335938 17.105469 32.332031 16.777344 L 32.261719 10.5 C 32.246094 9.191406 32.222656 7.882812 32.195312 6.574219 C 32.179688 5.761719 32.160156 4.945312 32.125 4.132812 C 32.105469 3.695312 32.035156 3.261719 32.007812 2.824219 C 31.988281 2.574219 32.011719 2.320312 32.015625 2.070312 C 32.328125 2.675781 32.636719 3.285156 32.957031 3.882812 C 33.460938 4.832031 34.269531 5.53125 34.996094 6.292969 C 37.871094 9.308594 39.910156 12.8125 41.179688 16.773438 Z M 41.179688 16.773438 "/>
<path style=" stroke:none;fill-rule:evenodd;fill:rgb(25.098039%,58.039216%,20%);fill-opacity:1;" d="M 32.394531 31.261719 L 32.484375 31.234375 C 32.671875 30.589844 33.25 30.6875 33.714844 30.605469 C 35.023438 30.378906 36.339844 30.175781 37.652344 29.960938 C 38.921875 29.757812 40.191406 29.550781 41.464844 29.347656 C 41.613281 29.324219 41.773438 29.34375 41.925781 29.34375 C 41.6875 30.191406 41.5 31.058594 41.199219 31.882812 C 40.855469 32.820312 40.441406 33.730469 40.003906 34.625 C 39.347656 35.964844 38.527344 37.210938 37.578125 38.355469 C 36.84375 39.238281 36.027344 40.050781 35.207031 40.855469 C 34.753906 41.300781 34.222656 41.664062 33.726562 42.0625 L 33.597656 41.976562 L 33.132812 41.578125 L 32.652344 40.527344 C 32.324219 39.296875 32.148438 38.042969 32.121094 36.769531 L 32.128906 36.554688 L 32.195312 35.628906 C 32.21875 35.3125 32.246094 34.996094 32.257812 34.679688 C 32.308594 33.542969 32.351562 32.402344 32.394531 31.261719 Z M 32.394531 31.261719 "/>
<path style=" stroke:none;fill-rule:evenodd;fill:rgb(30.980392%,66.666667%,25.490196%);fill-opacity:1;" d="M 32.394531 31.261719 C 32.351562 32.402344 32.308594 33.542969 32.257812 34.679688 C 32.246094 34.996094 32.21875 35.3125 32.195312 35.628906 L 31.902344 35.742188 C 31.253906 33.828125 30.605469 31.941406 29.96875 30.042969 C 28.917969 26.910156 27.882812 23.769531 26.832031 20.632812 C 25.988281 18.101562 25.132812 15.570312 24.273438 13.042969 C 24.234375 12.925781 24.117188 12.832031 24.039062 12.730469 L 25.910156 9.289062 C 25.972656 9.402344 26.058594 9.507812 26.097656 9.625 C 26.964844 12.1875 27.828125 14.746094 28.683594 17.308594 C 29.796875 20.644531 30.902344 23.980469 32.015625 27.316406 C 32.058594 27.449219 32.132812 27.574219 32.203125 27.722656 L 32.460938 27.425781 C 32.4375 28.703125 32.417969 29.984375 32.394531 31.261719 Z M 32.394531 31.261719 "/>
<path style=" stroke:none;fill-rule:evenodd;fill:rgb(29.019608%,65.490196%,23.529412%);fill-opacity:1;" d="M 24.039062 12.730469 C 24.117188 12.832031 24.234375 12.925781 24.273438 13.042969 C 25.132812 15.570312 25.984375 18.101562 26.832031 20.632812 C 27.882812 23.769531 28.917969 26.910156 29.96875 30.042969 C 30.605469 31.941406 31.253906 33.828125 31.902344 35.742188 L 32.195312 35.628906 L 32.128906 36.558594 L 32.070312 36.769531 C 31.96875 37.785156 31.882812 38.800781 31.757812 39.8125 C 31.695312 40.320312 31.566406 40.820312 31.464844 41.320312 C 31.386719 41.210938 31.28125 41.113281 31.242188 40.992188 C 29.152344 34.765625 27.070312 28.539062 24.988281 22.3125 C 24.324219 20.332031 23.65625 18.351562 22.984375 16.375 C 22.949219 16.273438 22.855469 16.195312 22.789062 16.105469 Z M 24.039062 12.730469 "/>
<path style=" stroke:none;fill-rule:evenodd;fill:rgb(34.117647%,68.235294%,27.843137%);fill-opacity:1;" d="M 32.460938 27.425781 L 32.203125 27.722656 C 32.132812 27.574219 32.058594 27.449219 32.015625 27.316406 C 30.902344 23.980469 29.796875 20.644531 28.683594 17.308594 C 27.824219 14.746094 26.960938 12.1875 26.097656 9.625 C 26.058594 9.507812 25.972656 9.402344 25.90625 9.289062 L 28.21875 6.25 C 28.292969 6.34375 28.398438 6.433594 28.433594 6.542969 C 29.078125 8.421875 29.714844 10.304688 30.347656 12.1875 C 30.9375 13.945312 31.519531 15.707031 32.117188 17.460938 C 32.15625 17.578125 32.296875 17.664062 32.390625 17.761719 L 32.394531 18.160156 Z M 32.460938 27.425781 "/>
<path style=" stroke:none;fill-rule:evenodd;fill:rgb(37.647059%,69.803922%,30.980392%);fill-opacity:1;" d="M 32.390625 17.761719 C 32.296875 17.664062 32.15625 17.578125 32.117188 17.460938 C 31.519531 15.707031 30.9375 13.945312 30.347656 12.1875 C 29.714844 10.304688 29.078125 8.421875 28.433594 6.542969 C 28.398438 6.433594 28.292969 6.34375 28.21875 6.25 C 28.972656 5.511719 29.699219 4.75 30.484375 4.046875 C 31.179688 3.421875 31.738281 2.753906 31.765625 1.765625 L 31.820312 1.570312 L 32.015625 2.070312 C 32.011719 2.320312 31.988281 2.574219 32.007812 2.824219 C 32.035156 3.261719 32.105469 3.695312 32.125 4.132812 C 32.160156 4.945312 32.179688 5.757812 32.195312 6.574219 C 32.222656 7.882812 32.246094 9.191406 32.261719 10.5 L 32.328125 16.777344 C 32.335938 17.105469 32.371094 17.433594 32.390625 17.761719 Z M 32.390625 17.761719 "/>
<path style=" stroke:none;fill-rule:evenodd;fill:rgb(66.27451%,66.666667%,53.333333%);fill-opacity:1;" d="M 31.464844 41.320312 C 31.566406 40.820312 31.699219 40.320312 31.757812 39.8125 C 31.882812 38.800781 31.96875 37.785156 32.070312 36.769531 L 32.097656 36.765625 L 32.121094 36.769531 C 32.148438 38.042969 32.324219 39.296875 32.652344 40.527344 C 32.585938 40.617188 32.492188 40.695312 32.457031 40.796875 C 32.179688 41.578125 31.914062 42.367188 31.636719 43.152344 C 31.597656 43.257812 31.492188 43.339844 31.417969 43.433594 L 31.132812 42.453125 Z M 31.464844 41.320312 "/>
<path style=" stroke:none;fill-rule:evenodd;fill:rgb(71.372549%,70.980392%,59.607843%);fill-opacity:1;" d="M 31.417969 43.433594 C 31.492188 43.339844 31.597656 43.257812 31.636719 43.152344 C 31.914062 42.367188 32.179688 41.578125 32.457031 40.796875 C 32.492188 40.695312 32.585938 40.617188 32.652344 40.527344 L 33.132812 41.582031 C 33.039062 41.714844 32.90625 41.835938 32.855469 41.984375 L 31.9375 44.683594 C 31.898438 44.789062 31.769531 44.867188 31.683594 44.957031 Z M 31.417969 43.433594 "/>
<path style=" stroke:none;fill-rule:evenodd;fill:rgb(76.078431%,75.686275%,65.490196%);fill-opacity:1;" d="M 31.683594 44.957031 C 31.769531 44.867188 31.898438 44.789062 31.9375 44.679688 L 32.855469 41.984375 C 32.90625 41.835938 33.039062 41.714844 33.132812 41.582031 L 33.597656 41.976562 C 33.371094 42.199219 33.25 42.453125 33.324219 42.777344 L 33.183594 43.238281 C 33.117188 43.316406 33.027344 43.386719 32.992188 43.476562 C 32.671875 44.394531 32.367188 45.316406 32.046875 46.234375 C 32.003906 46.351562 31.890625 46.441406 31.8125 46.546875 Z M 31.683594 44.957031 "/>
<path style=" stroke:none;fill-rule:evenodd;fill:rgb(80.784314%,80.392157%,71.764706%);fill-opacity:1;" d="M 31.808594 46.546875 C 31.890625 46.441406 32.003906 46.351562 32.042969 46.234375 C 32.367188 45.316406 32.671875 44.394531 32.992188 43.476562 C 33.023438 43.386719 33.117188 43.316406 33.183594 43.238281 L 32.988281 45.355469 C 32.933594 45.414062 32.859375 45.46875 32.835938 45.539062 L 32.1875 47.390625 C 32.144531 47.519531 32.054688 47.632812 31.988281 47.75 C 31.925781 47.671875 31.820312 47.59375 31.816406 47.511719 C 31.796875 47.191406 31.808594 46.867188 31.808594 46.546875 Z M 31.808594 46.546875 "/>
<path style=" stroke:none;fill-rule:evenodd;fill:rgb(85.882353%,85.490196%,78.039216%);fill-opacity:1;" d="M 31.988281 47.75 C 32.054688 47.632812 32.144531 47.519531 32.1875 47.390625 L 32.835938 45.539062 C 32.859375 45.46875 32.9375 45.417969 32.988281 45.355469 L 32.992188 46.746094 L 32.527344 47.941406 Z M 31.988281 47.75 "/>
<path style=" stroke:none;fill-rule:evenodd;fill:rgb(92.156863%,91.372549%,86.27451%);fill-opacity:1;" d="M 32.527344 47.941406 L 32.992188 46.746094 L 33.089844 48.160156 Z M 32.527344 47.941406 "/>
<path style=" stroke:none;fill-rule:evenodd;fill:rgb(80.784314%,80.392157%,71.764706%);fill-opacity:1;" d="M 33.324219 42.777344 C 33.25 42.453125 33.371094 42.199219 33.597656 41.976562 L 33.726562 42.0625 Z M 33.324219 42.777344 "/>
<path style=" stroke:none;fill-rule:evenodd;fill:rgb(30.980392%,66.666667%,25.490196%);fill-opacity:1;" d="M 32.121094 36.769531 L 32.097656 36.765625 L 32.070312 36.769531 L 32.128906 36.558594 Z M 32.121094 36.769531 "/>
</g>
</svg>
