<?xml version="1.0" encoding="UTF-8"?>
<svg xmlns="http://www.w3.org/2000/svg" xmlns:xlink="http://www.w3.org/1999/xlink" width="64pt" height="64pt" viewBox="0 0 64 64" version="1.1">
<g id="surface1">
<path style=" stroke:none;fill-rule:nonzero;fill:rgb(51.372549%,80.392157%,16.078431%);fill-opacity:1;" d="M 57.164062 40.375 C 57.015625 40.375 56.875 40.335938 56.746094 40.261719 L 55.421875 39.476562 C 55.222656 39.367188 55.320312 39.328125 55.386719 39.304688 C 55.648438 39.214844 55.703125 39.191406 55.984375 39.035156 C 56.015625 39.015625 56.050781 39.023438 56.082031 39.039062 L 57.101562 39.644531 C 57.136719 39.664062 57.191406 39.664062 57.222656 39.644531 L 61.191406 37.355469 C 61.230469 37.335938 61.253906 37.292969 61.253906 37.246094 L 61.253906 32.667969 C 61.253906 32.621094 61.230469 32.582031 61.191406 32.558594 L 57.222656 30.269531 C 57.1875 30.25 57.140625 30.25 57.101562 30.269531 L 53.136719 32.558594 C 53.097656 32.582031 53.074219 32.625 53.074219 32.667969 L 53.074219 37.246094 C 53.074219 37.292969 53.097656 37.332031 53.136719 37.351562 L 54.222656 37.980469 C 54.8125 38.277344 55.175781 37.929688 55.175781 37.582031 L 55.175781 33.058594 C 55.175781 32.996094 55.226562 32.945312 55.289062 32.945312 L 55.792969 32.945312 C 55.855469 32.945312 55.90625 32.996094 55.90625 33.058594 L 55.90625 37.582031 C 55.90625 38.367188 55.476562 38.820312 54.730469 38.820312 C 54.503906 38.820312 54.320312 38.820312 53.816406 38.570312 L 52.777344 37.972656 C 52.519531 37.824219 52.363281 37.546875 52.363281 37.246094 L 52.363281 32.667969 C 52.363281 32.371094 52.519531 32.09375 52.777344 31.945312 L 56.746094 29.652344 C 56.996094 29.511719 57.332031 29.511719 57.578125 29.652344 L 61.546875 31.945312 C 61.804688 32.09375 61.964844 32.371094 61.964844 32.667969 L 61.964844 37.246094 C 61.964844 37.546875 61.804688 37.820312 61.546875 37.972656 L 57.578125 40.261719 C 57.453125 40.335938 57.308594 40.375 57.164062 40.375 M 58.390625 37.21875 C 56.652344 37.21875 56.289062 36.421875 56.289062 35.753906 C 56.289062 35.691406 56.339844 35.636719 56.402344 35.636719 L 56.914062 35.636719 C 56.972656 35.636719 57.019531 35.679688 57.03125 35.734375 C 57.105469 36.257812 57.339844 36.523438 58.390625 36.523438 C 59.222656 36.523438 59.582031 36.332031 59.582031 35.886719 C 59.582031 35.632812 59.480469 35.441406 58.179688 35.316406 C 57.09375 35.207031 56.421875 34.96875 56.421875 34.097656 C 56.421875 33.296875 57.097656 32.820312 58.230469 32.820312 C 59.5 32.820312 60.128906 33.261719 60.210938 34.210938 C 60.210938 34.242188 60.199219 34.273438 60.179688 34.296875 C 60.15625 34.320312 60.128906 34.332031 60.09375 34.332031 L 59.578125 34.332031 C 59.527344 34.332031 59.480469 34.296875 59.46875 34.242188 C 59.34375 33.695312 59.042969 33.519531 58.226562 33.519531 C 57.316406 33.519531 57.210938 33.835938 57.210938 34.074219 C 57.210938 34.363281 57.335938 34.445312 58.566406 34.609375 C 59.785156 34.773438 60.367188 35 60.367188 35.855469 C 60.367188 36.722656 59.644531 37.21875 58.390625 37.21875 "/>
<path style=" stroke:none;fill-rule:nonzero;fill:rgb(25.098039%,25.490196%,21.568627%);fill-opacity:1;" d="M 48.992188 34.214844 C 49.148438 34.125 49.242188 33.957031 49.242188 33.773438 L 49.242188 32.597656 C 49.242188 32.417969 49.148438 32.25 48.992188 32.160156 L 44.808594 29.730469 C 44.652344 29.640625 44.457031 29.636719 44.300781 29.730469 L 40.089844 32.160156 C 39.933594 32.25 39.835938 32.417969 39.835938 32.597656 L 39.835938 37.457031 C 39.835938 37.640625 39.933594 37.808594 40.09375 37.898438 L 44.277344 40.28125 C 44.429688 40.371094 44.617188 40.371094 44.773438 40.285156 L 47.304688 38.878906 C 47.382812 38.832031 47.433594 38.75 47.433594 38.660156 C 47.433594 38.566406 47.386719 38.480469 47.304688 38.4375 L 43.074219 36.007812 C 42.992188 35.960938 42.945312 35.875 42.945312 35.785156 L 42.945312 34.261719 C 42.945312 34.171875 42.992188 34.089844 43.070312 34.042969 L 44.390625 33.285156 C 44.46875 33.238281 44.566406 33.238281 44.644531 33.285156 L 45.960938 34.042969 C 46.039062 34.089844 46.089844 34.171875 46.089844 34.261719 L 46.089844 35.460938 C 46.089844 35.550781 46.136719 35.636719 46.214844 35.679688 C 46.296875 35.726562 46.390625 35.726562 46.472656 35.679688 L 48.992188 34.214844 "/>
<path style=" stroke:none;fill-rule:nonzero;fill:rgb(51.372549%,80.392157%,16.078431%);fill-opacity:1;" d="M 44.492188 33.988281 C 44.523438 33.96875 44.558594 33.96875 44.589844 33.988281 L 45.398438 34.453125 C 45.425781 34.472656 45.445312 34.503906 45.445312 34.539062 L 45.445312 35.46875 C 45.445312 35.503906 45.425781 35.539062 45.398438 35.554688 L 44.589844 36.019531 C 44.558594 36.039062 44.523438 36.039062 44.492188 36.019531 L 43.683594 35.554688 C 43.65625 35.539062 43.636719 35.503906 43.636719 35.46875 L 43.636719 34.539062 C 43.636719 34.503906 43.65625 34.472656 43.683594 34.453125 L 44.492188 33.988281 "/>
<path style=" stroke:none;fill-rule:nonzero;fill:rgb(25.098039%,25.490196%,21.568627%);fill-opacity:1;" d="M 33.542969 35.925781 C 33.542969 35.972656 33.515625 36.015625 33.476562 36.035156 L 32.03125 36.871094 C 31.992188 36.894531 31.945312 36.894531 31.90625 36.871094 L 30.460938 36.035156 C 30.421875 36.015625 30.398438 35.972656 30.398438 35.925781 L 30.398438 34.257812 C 30.398438 34.214844 30.421875 34.171875 30.460938 34.148438 L 31.90625 33.3125 C 31.945312 33.289062 31.992188 33.289062 32.035156 33.3125 L 33.480469 34.148438 C 33.519531 34.171875 33.542969 34.214844 33.542969 34.257812 Z M 33.933594 23.570312 C 33.851562 23.527344 33.757812 23.527344 33.679688 23.570312 C 33.601562 23.617188 33.554688 23.699219 33.554688 23.789062 L 33.554688 30.25 C 33.554688 30.3125 33.519531 30.371094 33.464844 30.402344 C 33.410156 30.433594 33.34375 30.433594 33.289062 30.402344 L 32.234375 29.796875 C 32.078125 29.703125 31.882812 29.703125 31.726562 29.796875 L 27.515625 32.222656 C 27.359375 32.316406 27.261719 32.484375 27.261719 32.664062 L 27.261719 37.523438 C 27.261719 37.707031 27.359375 37.871094 27.515625 37.964844 L 31.726562 40.394531 C 31.882812 40.484375 32.078125 40.484375 32.234375 40.394531 L 36.445312 37.964844 C 36.601562 37.871094 36.699219 37.707031 36.699219 37.523438 L 36.699219 25.410156 C 36.699219 25.226562 36.597656 25.054688 36.4375 24.964844 L 33.933594 23.570312 "/>
<path style=" stroke:none;fill-rule:nonzero;fill:rgb(51.372549%,80.392157%,16.078431%);fill-opacity:1;" d="M 19.117188 29.703125 C 19.277344 29.613281 19.46875 29.613281 19.628906 29.703125 L 23.835938 32.132812 C 23.992188 32.222656 24.089844 32.390625 24.089844 32.574219 L 24.089844 37.433594 C 24.089844 37.613281 23.992188 37.78125 23.835938 37.875 L 19.628906 40.304688 C 19.46875 40.394531 19.277344 40.394531 19.117188 40.304688 L 14.910156 37.875 C 14.753906 37.78125 14.65625 37.613281 14.65625 37.433594 L 14.65625 32.570312 C 14.65625 32.390625 14.753906 32.222656 14.910156 32.132812 L 19.117188 29.703125 "/>
<path style=" stroke:none;fill-rule:nonzero;fill:rgb(25.098039%,25.490196%,21.568627%);fill-opacity:1;" d="M 11.464844 32.53125 C 11.464844 32.347656 11.367188 32.179688 11.210938 32.089844 L 7.003906 29.667969 C 6.929688 29.628906 6.851562 29.605469 6.773438 29.601562 L 6.726562 29.601562 C 6.648438 29.605469 6.566406 29.628906 6.496094 29.667969 L 2.289062 32.089844 C 2.132812 32.179688 2.035156 32.347656 2.035156 32.53125 L 2.042969 39.050781 C 2.042969 39.144531 2.089844 39.226562 2.167969 39.273438 C 2.246094 39.320312 2.34375 39.320312 2.421875 39.273438 L 4.921875 37.839844 C 5.078125 37.746094 5.175781 37.578125 5.175781 37.398438 L 5.175781 34.351562 C 5.175781 34.171875 5.273438 34.003906 5.429688 33.910156 L 6.496094 33.300781 C 6.574219 33.253906 6.660156 33.230469 6.75 33.230469 C 6.835938 33.230469 6.925781 33.253906 7.003906 33.300781 L 8.066406 33.910156 C 8.222656 34.003906 8.320312 34.171875 8.320312 34.351562 L 8.320312 37.398438 C 8.320312 37.578125 8.417969 37.746094 8.574219 37.839844 L 11.074219 39.273438 C 11.152344 39.320312 11.253906 39.320312 11.328125 39.273438 C 11.40625 39.226562 11.457031 39.140625 11.457031 39.050781 L 11.464844 32.53125 "/>
</g>
</svg>
