<?xml version="1.0" encoding="UTF-8"?>
<svg xmlns="http://www.w3.org/2000/svg" xmlns:xlink="http://www.w3.org/1999/xlink" width="64pt" height="64pt" viewBox="0 0 64 64" version="1.1">
<g id="surface1">
<path style=" stroke:none;fill-rule:nonzero;fill:rgb(0%,0%,0%);fill-opacity:1;" d="M 42.992188 38.039062 C 43.308594 35.40625 43.214844 35.019531 45.175781 35.445312 L 45.671875 35.492188 C 47.179688 35.558594 49.152344 35.246094 50.308594 34.710938 C 52.800781 33.554688 54.28125 31.621094 51.820312 32.128906 C 46.214844 33.285156 45.828125 31.386719 45.828125 31.386719 C 51.75 22.601562 54.226562 11.449219 52.089844 8.71875 C 46.261719 1.273438 36.175781 4.796875 36.007812 4.886719 L 35.953125 4.898438 C 34.84375 4.667969 33.605469 4.53125 32.210938 4.507812 C 29.675781 4.464844 27.75 5.171875 26.289062 6.28125 C 26.289062 6.28125 8.292969 -1.132812 9.128906 15.601562 C 9.308594 19.164062 14.234375 42.542969 20.109375 35.480469 C 22.253906 32.898438 24.332031 30.714844 24.332031 30.714844 C 25.359375 31.402344 26.59375 31.75 27.886719 31.625 L 27.988281 31.539062 C 27.957031 31.859375 27.972656 32.171875 28.027344 32.542969 C 26.515625 34.234375 26.960938 34.53125 23.933594 35.15625 C 20.875 35.785156 22.671875 36.910156 23.84375 37.203125 C 25.269531 37.558594 28.5625 38.0625 30.789062 34.949219 L 30.699219 35.304688 C 31.292969 35.777344 31.253906 38.71875 31.335938 40.816406 C 31.421875 42.917969 31.5625 44.875 31.988281 46.03125 C 32.417969 47.1875 32.921875 50.160156 36.898438 49.308594 C 40.222656 48.597656 42.761719 47.570312 42.992188 38.039062 "/>
<path style=" stroke:none;fill-rule:nonzero;fill:rgb(0%,0%,0%);fill-opacity:1;" d="M 35.605469 51.386719 C 33.84375 51.386719 32.699219 50.703125 32.003906 50.046875 C 30.953125 49.058594 30.539062 47.78125 30.289062 47.019531 L 30.179688 46.699219 C 29.679688 45.347656 29.511719 43.402344 29.410156 40.894531 C 29.394531 40.515625 29.382812 40.128906 29.371094 39.71875 C 29.363281 39.417969 29.355469 39.039062 29.339844 38.644531 C 28.714844 38.945312 28.046875 39.15625 27.339844 39.277344 C 26.101562 39.488281 24.765625 39.417969 23.378906 39.070312 C 22.398438 38.828125 21.378906 38.320312 20.796875 37.535156 C 19.105469 39.015625 17.492188 38.816406 16.609375 38.523438 C 15.058594 38.003906 13.671875 36.550781 12.367188 34.078125 C 11.4375 32.316406 10.535156 30.019531 9.691406 27.253906 C 8.222656 22.4375 7.289062 17.363281 7.203125 15.699219 C 6.945312 10.484375 8.347656 6.757812 11.375 4.621094 C 16.152344 1.246094 23.390625 3.230469 26.027344 4.128906 C 27.800781 3.0625 29.886719 2.539062 32.242188 2.578125 C 33.507812 2.597656 34.714844 2.710938 35.835938 2.910156 C 37 2.542969 39.308594 2.015625 41.949219 2.046875 C 46.8125 2.105469 50.84375 4.003906 53.605469 7.53125 C 55.578125 10.050781 54.601562 15.335938 53.847656 18.265625 C 52.785156 22.382812 50.917969 26.761719 48.628906 30.574219 C 49.25 30.578125 50.152344 30.503906 51.433594 30.242188 C 53.960938 29.71875 54.699219 31.074219 54.898438 31.679688 C 55.703125 34.113281 52.210938 35.953125 51.121094 36.457031 C 49.722656 37.105469 47.449219 37.5 45.585938 37.414062 L 45.503906 37.410156 L 45.011719 37.367188 L 44.964844 37.773438 L 44.917969 38.175781 C 44.792969 43.007812 44.101562 46.066406 42.683594 48.089844 C 41.195312 50.207031 39.125 50.804688 37.300781 51.195312 C 36.679688 51.328125 36.117188 51.386719 35.605469 51.386719 Z M 31.902344 33.796875 C 33.039062 34.707031 33.136719 36.414062 33.226562 39.609375 C 33.238281 40.007812 33.246094 40.386719 33.261719 40.738281 C 33.304688 41.804688 33.40625 44.304688 33.796875 45.363281 C 33.851562 45.511719 33.902344 45.664062 33.953125 45.824219 C 34.390625 47.160156 34.609375 47.828125 36.492188 47.425781 C 38.078125 47.085938 38.890625 46.78125 39.527344 45.875 C 40.453125 44.554688 40.972656 41.902344 41.066406 37.988281 L 42.992188 38.035156 L 41.078125 37.808594 L 41.136719 37.328125 C 41.320312 35.757812 41.453125 34.617188 42.503906 33.867188 C 43.347656 33.261719 44.308594 33.320312 45.078125 33.460938 C 44.234375 32.824219 44.003906 32.078125 43.941406 31.769531 L 43.78125 30.980469 L 44.230469 30.308594 C 46.832031 26.453125 48.976562 21.710938 50.113281 17.300781 C 51.285156 12.769531 50.925781 10.363281 50.570312 9.90625 C 45.847656 3.871094 37.65625 6.363281 36.800781 6.648438 L 36.65625 6.726562 L 35.929688 6.859375 L 35.558594 6.785156 C 34.535156 6.570312 33.398438 6.453125 32.179688 6.433594 C 30.265625 6.402344 28.71875 6.855469 27.453125 7.816406 L 26.574219 8.484375 L 25.550781 8.0625 C 23.375 7.171875 16.972656 5.378906 13.59375 7.773438 C 11.71875 9.101562 10.863281 11.703125 11.054688 15.507812 C 11.117188 16.761719 11.972656 21.515625 13.378906 26.128906 C 15.324219 32.503906 17.089844 34.617188 17.828125 34.867188 C 17.957031 34.910156 18.292969 34.648438 18.625 34.25 C 20.789062 31.648438 22.84375 29.480469 22.929688 29.386719 L 24.046875 28.214844 L 25.394531 29.109375 C 25.9375 29.472656 26.539062 29.675781 27.15625 29.714844 L 30.371094 26.972656 L 29.90625 31.726562 C 29.894531 31.835938 29.890625 31.980469 29.929688 32.25 L 30.070312 33.152344 L 29.464844 33.828125 L 29.394531 33.910156 L 31.160156 34.722656 Z M 31.902344 33.796875 "/>
<path style=" stroke:none;fill-rule:nonzero;fill:rgb(20%,40.392157%,56.862745%);fill-opacity:1;" d="M 51.824219 32.128906 C 46.214844 33.285156 45.828125 31.386719 45.828125 31.386719 C 51.75 22.601562 54.226562 11.449219 52.089844 8.71875 C 46.261719 1.273438 36.175781 4.796875 36.007812 4.886719 L 35.953125 4.894531 C 34.84375 4.667969 33.605469 4.53125 32.210938 4.507812 C 29.671875 4.464844 27.75 5.171875 26.289062 6.28125 C 26.289062 6.28125 8.292969 -1.132812 9.128906 15.601562 C 9.308594 19.164062 14.234375 42.542969 20.109375 35.480469 C 22.253906 32.898438 24.328125 30.714844 24.328125 30.714844 C 25.359375 31.402344 26.59375 31.75 27.886719 31.625 L 27.988281 31.539062 C 27.957031 31.859375 27.96875 32.171875 28.027344 32.542969 C 26.515625 34.234375 26.957031 34.53125 23.933594 35.15625 C 20.871094 35.785156 22.671875 36.910156 23.84375 37.203125 C 25.269531 37.558594 28.5625 38.0625 30.785156 34.949219 L 30.699219 35.304688 C 31.289062 35.777344 31.707031 38.394531 31.636719 40.761719 C 31.566406 43.132812 31.519531 44.761719 31.988281 46.03125 C 32.457031 47.300781 32.921875 50.160156 36.898438 49.308594 C 40.222656 48.597656 41.941406 46.753906 42.183594 43.675781 C 42.351562 41.484375 42.738281 41.808594 42.761719 39.851562 L 43.070312 38.925781 C 43.425781 35.957031 43.128906 35 45.175781 35.445312 L 45.671875 35.492188 C 47.179688 35.558594 49.152344 35.246094 50.308594 34.710938 C 52.800781 33.554688 54.28125 31.621094 51.824219 32.128906 Z M 51.824219 32.128906 "/>
<path style=" stroke:none;fill-rule:nonzero;fill:rgb(100%,100%,100%);fill-opacity:1;" d="M 35.804688 50.195312 C 32.488281 50.199219 31.441406 47.570312 31.007812 46.5 C 30.382812 44.925781 30.246094 38.820312 30.386719 33.8125 C 30.394531 33.457031 30.6875 33.175781 31.046875 33.1875 C 31.398438 33.199219 31.679688 33.492188 31.671875 33.847656 C 31.507812 39.625 31.738281 44.855469 32.203125 46.019531 C 32.929688 47.835938 34.03125 49.425781 37.148438 48.757812 C 40.105469 48.125 41.210938 47.003906 41.703125 44.144531 C 42.082031 41.949219 42.832031 35.707031 42.921875 34.472656 C 42.949219 34.121094 43.257812 33.855469 43.613281 33.882812 C 43.964844 33.90625 44.230469 34.214844 44.203125 34.570312 C 44.109375 35.851562 43.363281 42.082031 42.96875 44.363281 C 42.386719 47.738281 40.882812 49.273438 37.414062 50.015625 C 36.828125 50.140625 36.292969 50.195312 35.804688 50.195312 Z M 17.828125 37.375 C 17.511719 37.375 17.226562 37.316406 16.976562 37.234375 C 14.824219 36.515625 12.773438 33.007812 10.882812 26.808594 C 9.441406 22.089844 8.527344 17.164062 8.449219 15.566406 C 8.210938 10.820312 9.433594 7.460938 12.082031 5.585938 C 17.320312 1.875 26.132812 5.410156 26.503906 5.5625 C 26.832031 5.695312 26.988281 6.070312 26.855469 6.398438 C 26.722656 6.726562 26.34375 6.886719 26.015625 6.75 C 25.933594 6.714844 17.484375 3.332031 12.820312 6.636719 C 10.558594 8.242188 9.519531 11.222656 9.730469 15.5 C 9.800781 16.847656 10.652344 21.65625 12.109375 26.433594 C 13.800781 31.96875 15.722656 35.460938 17.382812 36.015625 C 17.644531 36.101562 18.4375 36.367188 19.574219 35.003906 C 21.710938 32.433594 23.671875 30.382812 23.691406 30.359375 C 23.9375 30.105469 24.34375 30.097656 24.601562 30.339844 C 24.855469 30.585938 24.867188 30.992188 24.621094 31.25 C 24.601562 31.269531 22.667969 33.289062 20.5625 35.824219 C 19.566406 37.023438 18.609375 37.375 17.828125 37.375 Z M 45.789062 31.960938 C 45.664062 31.960938 45.539062 31.925781 45.429688 31.851562 C 45.136719 31.652344 45.058594 31.253906 45.257812 30.957031 C 51.242188 22.074219 53.34375 11.34375 51.542969 9.046875 C 49.277344 6.152344 46.082031 4.640625 42.039062 4.554688 C 39.042969 4.488281 36.664062 5.253906 36.277344 5.386719 L 36.179688 5.425781 C 35.789062 5.546875 35.488281 5.335938 35.375 5.082031 C 35.242188 4.785156 35.351562 4.4375 35.628906 4.269531 L 35.800781 4.195312 L 35.792969 4.199219 L 35.800781 4.195312 C 36.464844 3.953125 38.878906 3.230469 41.871094 3.265625 C 46.34375 3.3125 50.039062 5.035156 52.554688 8.253906 C 53.746094 9.773438 53.75 13.28125 52.5625 17.871094 C 51.355469 22.554688 49.078125 27.585938 46.324219 31.675781 C 46.199219 31.859375 45.996094 31.960938 45.789062 31.960938 Z M 46.09375 36.070312 C 45.074219 36.070312 44.15625 35.929688 43.609375 35.597656 C 43.042969 35.261719 42.9375 34.800781 42.921875 34.558594 C 42.769531 31.855469 44.261719 31.386719 45.019531 31.171875 C 44.914062 31.011719 44.761719 30.824219 44.609375 30.628906 C 44.164062 30.074219 43.558594 29.316406 43.089844 28.179688 C 43.015625 28.003906 42.785156 27.589844 42.519531 27.113281 C 41.078125 24.53125 38.078125 19.152344 40.007812 16.398438 C 40.898438 15.121094 42.671875 14.621094 45.289062 14.902344 C 44.519531 12.554688 40.855469 5.222656 32.160156 5.078125 C 29.542969 5.035156 27.398438 5.839844 25.789062 7.464844 C 22.179688 11.109375 22.308594 17.703125 22.3125 17.769531 C 22.320312 18.125 22.039062 18.421875 21.6875 18.429688 C 21.332031 18.441406 21.035156 18.160156 21.027344 17.804688 C 21.019531 17.511719 20.882812 10.59375 24.875 6.5625 C 26.742188 4.675781 29.199219 3.746094 32.179688 3.792969 C 37.746094 3.886719 41.324219 6.714844 43.351562 9.070312 C 45.554688 11.636719 46.636719 14.472656 46.726562 15.414062 C 46.792969 16.117188 46.289062 16.261719 46.1875 16.28125 L 45.957031 16.285156 C 43.386719 15.875 41.742188 16.160156 41.058594 17.132812 C 39.59375 19.226562 42.429688 24.316406 43.644531 26.488281 C 43.953125 27.042969 44.175781 27.441406 44.277344 27.691406 C 44.675781 28.65625 45.195312 29.304688 45.613281 29.824219 C 45.976562 30.28125 46.296875 30.679688 46.410156 31.148438 C 46.460938 31.238281 47.210938 32.347656 51.652344 31.429688 C 52.765625 31.199219 53.433594 31.398438 53.640625 32.011719 C 54.039062 33.226562 51.789062 34.644531 50.539062 35.222656 C 49.421875 35.742188 47.636719 36.070312 46.09375 36.070312 Z M 44.203125 34.453125 C 44.34375 34.59375 45.050781 34.839844 46.511719 34.777344 C 47.808594 34.722656 49.179688 34.4375 50 34.058594 C 51.050781 33.570312 51.753906 33.023438 52.117188 32.652344 L 51.914062 32.6875 C 49.074219 33.277344 47.0625 33.199219 45.941406 32.457031 C 45.863281 32.402344 45.789062 32.347656 45.726562 32.296875 C 45.601562 32.34375 45.492188 32.375 45.410156 32.398438 C 44.773438 32.574219 44.117188 32.761719 44.203125 34.453125 Z M 25.855469 38.042969 C 25.152344 38.042969 24.40625 37.945312 23.648438 37.757812 C 22.863281 37.558594 21.539062 36.96875 21.558594 35.996094 C 21.582031 34.90625 23.167969 34.578125 23.765625 34.457031 C 25.921875 34.011719 26.0625 33.835938 26.734375 32.976562 C 26.933594 32.730469 27.175781 32.417969 27.507812 32.046875 C 28.003906 31.492188 28.546875 31.210938 29.117188 31.210938 C 29.515625 31.210938 29.84375 31.347656 30.058594 31.4375 C 30.746094 31.722656 31.320312 32.410156 31.554688 33.234375 C 31.769531 33.980469 31.667969 34.695312 31.269531 35.25 C 29.964844 37.078125 28.09375 38.042969 25.855469 38.042969 Z M 22.949219 36.050781 C 23.140625 36.203125 23.53125 36.402344 23.960938 36.511719 C 24.617188 36.675781 25.253906 36.757812 25.855469 36.757812 C 27.6875 36.757812 29.15625 36 30.222656 34.503906 C 30.445312 34.191406 30.378906 33.796875 30.320312 33.589844 C 30.195312 33.152344 29.886719 32.757812 29.566406 32.621094 C 29.394531 32.550781 29.25 32.496094 29.117188 32.496094 C 29.046875 32.496094 28.832031 32.496094 28.46875 32.902344 C 28.160156 33.246094 27.941406 33.527344 27.746094 33.773438 C 26.90625 34.839844 26.519531 35.199219 24.023438 35.714844 C 23.414062 35.839844 23.101562 35.96875 22.949219 36.050781 Z M 27.886719 33.089844 C 27.578125 33.089844 27.304688 32.859375 27.253906 32.542969 C 27.238281 32.4375 27.226562 32.328125 27.222656 32.222656 C 25.585938 32.191406 24.007812 31.488281 22.808594 30.238281 C 21.292969 28.65625 20.601562 26.464844 20.914062 24.226562 C 21.253906 21.796875 21.128906 19.648438 21.058594 18.496094 C 21.039062 18.175781 21.027344 17.945312 21.027344 17.785156 C 21.027344 17.582031 21.03125 17.039062 22.835938 16.128906 C 23.476562 15.800781 24.761719 15.234375 26.164062 15.089844 C 28.492188 14.851562 30.027344 15.886719 30.484375 18.007812 C 31.722656 23.738281 30.582031 26.273438 29.75 28.121094 C 29.59375 28.46875 29.449219 28.792969 29.332031 29.109375 L 29.226562 29.386719 C 28.789062 30.566406 28.40625 31.585938 28.523438 32.347656 C 28.578125 32.699219 28.335938 33.027344 27.988281 33.082031 Z M 22.316406 17.960938 L 22.34375 18.421875 C 22.414062 19.617188 22.546875 21.847656 22.1875 24.40625 C 21.929688 26.25 22.492188 28.054688 23.734375 29.347656 C 24.714844 30.371094 26.007812 30.9375 27.335938 30.9375 L 27.363281 30.9375 C 27.511719 30.3125 27.757812 29.648438 28.023438 28.9375 L 28.128906 28.660156 C 28.257812 28.304688 28.414062 27.960938 28.578125 27.597656 C 29.378906 25.8125 30.378906 23.597656 29.230469 18.28125 C 29 17.226562 28.449219 16.617188 27.542969 16.417969 C 25.675781 16.003906 22.898438 17.40625 22.316406 17.960938 Z M 26.195312 17.6875 C 26.164062 17.914062 26.613281 18.523438 27.195312 18.601562 C 27.777344 18.683594 28.277344 18.210938 28.308594 17.984375 C 28.339844 17.757812 27.894531 17.507812 27.308594 17.425781 C 26.726562 17.34375 26.226562 17.460938 26.195312 17.6875 Z M 27.328125 18.828125 L 27.164062 18.816406 C 26.804688 18.765625 26.4375 18.535156 26.1875 18.203125 C 26.097656 18.085938 25.953125 17.859375 25.984375 17.660156 C 26.023438 17.363281 26.386719 17.183594 26.949219 17.183594 C 27.074219 17.183594 27.207031 17.195312 27.339844 17.210938 C 27.648438 17.253906 27.933594 17.34375 28.144531 17.460938 C 28.511719 17.667969 28.539062 17.894531 28.523438 18.015625 C 28.476562 18.339844 27.957031 18.828125 27.328125 18.828125 Z M 26.40625 17.726562 C 26.425781 17.867188 26.773438 18.328125 27.226562 18.390625 L 27.328125 18.398438 C 27.746094 18.398438 28.058594 18.070312 28.09375 17.964844 C 28.054688 17.890625 27.789062 17.707031 27.28125 17.636719 C 27.167969 17.621094 27.054688 17.613281 26.949219 17.613281 C 26.621094 17.613281 26.449219 17.6875 26.40625 17.726562 Z M 43.96875 17.226562 C 44 17.453125 43.550781 18.058594 42.96875 18.140625 C 42.382812 18.222656 41.882812 17.746094 41.851562 17.519531 C 41.820312 17.292969 42.269531 17.042969 42.851562 16.960938 C 43.4375 16.878906 43.9375 17 43.96875 17.226562 Z M 42.832031 18.257812 C 42.269531 18.257812 41.785156 17.820312 41.746094 17.535156 C 41.699219 17.195312 42.261719 16.933594 42.839844 16.855469 C 42.964844 16.835938 43.09375 16.828125 43.214844 16.828125 C 43.710938 16.828125 44.042969 16.976562 44.074219 17.210938 C 44.097656 17.363281 43.980469 17.597656 43.777344 17.8125 C 43.644531 17.949219 43.363281 18.195312 42.984375 18.246094 Z M 43.214844 17.042969 C 43.101562 17.042969 42.984375 17.050781 42.867188 17.066406 C 42.285156 17.148438 41.941406 17.382812 41.957031 17.507812 C 41.976562 17.644531 42.347656 18.042969 42.832031 18.042969 L 42.953125 18.035156 C 43.269531 17.988281 43.507812 17.78125 43.621094 17.664062 C 43.800781 17.476562 43.871094 17.300781 43.863281 17.238281 C 43.851562 17.160156 43.636719 17.042969 43.214844 17.042969 Z M 44.808594 30.269531 C 44.6875 30.269531 44.5625 30.234375 44.453125 30.160156 C 44.15625 29.960938 44.078125 29.5625 44.277344 29.269531 C 45.644531 27.226562 45.394531 25.140625 45.152344 23.125 C 45.046875 22.265625 44.941406 21.378906 44.96875 20.527344 C 44.996094 19.652344 45.109375 18.925781 45.21875 18.226562 C 45.34375 17.398438 45.464844 16.617188 45.414062 15.6875 C 45.394531 15.332031 45.667969 15.03125 46.023438 15.011719 C 46.378906 14.992188 46.679688 15.261719 46.699219 15.617188 C 46.753906 16.679688 46.617188 17.566406 46.488281 18.421875 C 46.386719 19.085938 46.28125 19.769531 46.253906 20.566406 C 46.230469 21.324219 46.324219 22.125 46.429688 22.972656 C 46.6875 25.117188 46.976562 27.546875 45.34375 29.984375 C 45.21875 30.167969 45.015625 30.269531 44.808594 30.269531 Z M 44.808594 30.269531 "/>
<path style=" stroke:none;fill-rule:nonzero;fill:rgb(0%,0%,0%);fill-opacity:1;" d="M 1.417969 51.59375 C 1.964844 51.5 2.679688 51.421875 3.589844 51.421875 C 4.707031 51.421875 5.527344 51.683594 6.046875 52.152344 C 6.527344 52.566406 6.8125 53.203125 6.8125 53.984375 C 6.8125 54.777344 6.578125 55.402344 6.136719 55.855469 C 5.539062 56.492188 4.5625 56.820312 3.457031 56.820312 C 3.121094 56.820312 2.808594 56.804688 2.550781 56.742188 L 2.550781 60.25 L 1.417969 60.25 Z M 2.550781 55.816406 C 2.796875 55.882812 3.109375 55.90625 3.484375 55.90625 C 4.847656 55.90625 5.683594 55.246094 5.683594 54.035156 C 5.683594 52.878906 4.863281 52.320312 3.613281 52.320312 C 3.121094 52.320312 2.742188 52.359375 2.550781 52.410156 Z M 13.664062 57.050781 C 13.664062 59.378906 12.050781 60.394531 10.53125 60.394531 C 8.828125 60.394531 7.515625 59.144531 7.515625 57.15625 C 7.515625 55.050781 8.890625 53.816406 10.632812 53.816406 C 12.441406 53.816406 13.664062 55.128906 13.664062 57.050781 Z M 8.671875 57.117188 C 8.671875 58.496094 9.464844 59.535156 10.582031 59.535156 C 11.675781 59.535156 12.492188 58.507812 12.492188 57.089844 C 12.492188 56.023438 11.960938 54.671875 10.609375 54.671875 C 9.257812 54.671875 8.671875 55.921875 8.671875 57.117188 Z M 14.949219 59.078125 C 15.289062 59.300781 15.886719 59.535156 16.457031 59.535156 C 17.289062 59.535156 17.679688 59.117188 17.679688 58.597656 C 17.679688 58.054688 17.355469 57.753906 16.511719 57.441406 C 15.378906 57.039062 14.847656 56.414062 14.847656 55.660156 C 14.847656 54.648438 15.664062 53.816406 17.015625 53.816406 C 17.65625 53.816406 18.214844 53.996094 18.566406 54.203125 L 18.277344 55.035156 C 18.03125 54.882812 17.578125 54.671875 16.992188 54.671875 C 16.316406 54.671875 15.9375 55.0625 15.9375 55.53125 C 15.9375 56.050781 16.316406 56.285156 17.136719 56.597656 C 18.226562 57.011719 18.785156 57.558594 18.785156 58.496094 C 18.785156 59.601562 17.929688 60.378906 16.433594 60.378906 C 15.746094 60.378906 15.109375 60.210938 14.664062 59.949219 Z M 21.632812 52.152344 L 21.632812 53.957031 L 23.269531 53.957031 L 23.269531 54.828125 L 21.632812 54.828125 L 21.632812 58.222656 C 21.632812 59 21.851562 59.445312 22.492188 59.445312 C 22.789062 59.445312 23.011719 59.40625 23.152344 59.367188 L 23.207031 60.222656 C 22.984375 60.316406 22.632812 60.378906 22.191406 60.378906 C 21.660156 60.378906 21.230469 60.210938 20.957031 59.898438 C 20.632812 59.558594 20.515625 59 20.515625 58.261719 L 20.515625 54.828125 L 19.539062 54.828125 L 19.539062 53.957031 L 20.515625 53.957031 L 20.515625 52.449219 Z M 29.902344 53.957031 C 29.875 54.414062 29.847656 54.921875 29.847656 55.6875 L 29.847656 59.339844 C 29.847656 60.78125 29.5625 61.667969 28.953125 62.214844 C 28.339844 62.785156 27.457031 62.96875 26.664062 62.96875 C 25.910156 62.96875 25.078125 62.785156 24.570312 62.449219 L 24.855469 61.578125 C 25.273438 61.835938 25.921875 62.070312 26.703125 62.070312 C 27.871094 62.070312 28.730469 61.460938 28.730469 59.875 L 28.730469 59.171875 L 28.703125 59.171875 C 28.351562 59.757812 27.675781 60.222656 26.703125 60.222656 C 25.140625 60.222656 24.023438 58.898438 24.023438 57.15625 C 24.023438 55.023438 25.414062 53.816406 26.859375 53.816406 C 27.949219 53.816406 28.550781 54.386719 28.820312 54.90625 L 28.847656 54.90625 L 28.898438 53.957031 Z M 28.71875 56.441406 C 28.71875 56.246094 28.703125 56.078125 28.652344 55.921875 C 28.445312 55.257812 27.886719 54.710938 27.054688 54.710938 C 25.960938 54.710938 25.183594 55.636719 25.183594 57.089844 C 25.183594 58.324219 25.804688 59.351562 27.039062 59.351562 C 27.742188 59.351562 28.378906 58.910156 28.628906 58.183594 C 28.691406 57.988281 28.71875 57.765625 28.71875 57.570312 Z M 31.667969 55.921875 C 31.667969 55.179688 31.65625 54.542969 31.617188 53.957031 L 32.617188 53.957031 L 32.65625 55.191406 L 32.707031 55.191406 C 32.996094 54.347656 33.683594 53.816406 34.449219 53.816406 C 34.582031 53.816406 34.671875 53.828125 34.773438 53.855469 L 34.773438 54.933594 C 34.660156 54.90625 34.539062 54.894531 34.386719 54.894531 C 33.578125 54.894531 33.007812 55.503906 32.851562 56.363281 C 32.824219 56.519531 32.800781 56.699219 32.800781 56.894531 L 32.800781 60.25 L 31.667969 60.25 Z M 36.425781 57.3125 C 36.453125 58.859375 37.441406 59.496094 38.585938 59.496094 C 39.402344 59.496094 39.898438 59.351562 40.328125 59.171875 L 40.523438 59.988281 C 40.117188 60.171875 39.429688 60.378906 38.429688 60.378906 C 36.492188 60.378906 35.335938 59.105469 35.335938 57.207031 C 35.335938 55.308594 36.453125 53.816406 38.285156 53.816406 C 40.339844 53.816406 40.886719 55.621094 40.886719 56.777344 C 40.886719 57.011719 40.859375 57.195312 40.847656 57.3125 Z M 39.78125 56.492188 C 39.792969 55.765625 39.480469 54.632812 38.195312 54.632812 C 37.039062 54.632812 36.53125 55.699219 36.441406 56.492188 Z M 39.78125 56.492188 "/>
<path style=" stroke:none;fill-rule:nonzero;fill:rgb(20%,40.392157%,56.862745%);fill-opacity:1;" d="M 42.183594 58.871094 C 42.691406 59.183594 43.433594 59.445312 44.214844 59.445312 C 45.371094 59.445312 46.046875 58.832031 46.046875 57.949219 C 46.046875 57.128906 45.578125 56.660156 44.394531 56.207031 C 42.964844 55.699219 42.082031 54.960938 42.082031 53.722656 C 42.082031 52.359375 43.210938 51.34375 44.914062 51.34375 C 45.8125 51.34375 46.460938 51.554688 46.851562 51.773438 L 46.539062 52.695312 C 46.253906 52.539062 45.667969 52.28125 44.875 52.28125 C 43.679688 52.28125 43.226562 52.996094 43.226562 53.59375 C 43.226562 54.414062 43.757812 54.816406 44.96875 55.285156 C 46.449219 55.855469 47.203125 56.570312 47.203125 57.859375 C 47.203125 59.210938 46.203125 60.378906 44.136719 60.378906 C 43.289062 60.378906 42.367188 60.132812 41.898438 59.820312 Z M 55.976562 61.535156 C 54.796875 61.226562 53.636719 60.875 52.625 60.523438 C 52.441406 60.457031 52.261719 60.394531 52.089844 60.394531 C 50.011719 60.316406 48.230469 58.78125 48.230469 55.960938 C 48.230469 53.152344 49.945312 51.34375 52.3125 51.34375 C 54.691406 51.34375 56.238281 53.191406 56.238281 55.777344 C 56.238281 58.027344 55.199219 59.46875 53.742188 59.976562 L 53.742188 60.027344 C 54.613281 60.25 55.5625 60.457031 56.304688 60.589844 Z M 55.042969 55.828125 C 55.042969 54.074219 54.132812 52.265625 52.273438 52.265625 C 50.363281 52.265625 49.425781 54.035156 49.441406 55.933594 C 49.425781 57.792969 50.453125 59.46875 52.222656 59.46875 C 54.027344 59.46875 55.042969 57.832031 55.042969 55.828125 Z M 57.707031 51.488281 L 58.839844 51.488281 L 58.839844 59.300781 L 62.582031 59.300781 L 62.582031 60.25 L 57.707031 60.25 Z M 57.707031 51.488281 "/>
</g>
</svg>
