<?xml version="1.0" encoding="UTF-8"?>
<svg xmlns="http://www.w3.org/2000/svg" xmlns:xlink="http://www.w3.org/1999/xlink" width="64pt" height="64pt" viewBox="0 0 64 64" version="1.1">
<g id="surface1">
<path style=" stroke:none;fill-rule:nonzero;fill:rgb(38.039216%,85.490196%,98.431373%);fill-opacity:1;" d="M 36.648438 23.75 C 36.648438 26.316406 34.566406 28.398438 32 28.398438 C 29.433594 28.398438 27.351562 26.316406 27.351562 23.75 C 27.351562 21.183594 29.433594 19.101562 32 19.101562 C 34.566406 19.101562 36.648438 21.183594 36.648438 23.75 Z M 36.648438 23.75 "/>
<path style=" stroke:none;fill-rule:nonzero;fill:rgb(38.039216%,85.490196%,98.431373%);fill-opacity:1;" d="M 32 40.851562 C 35.648438 44.398438 39.25 46.5 42.148438 46.5 C 43.101562 46.5 44 46.300781 44.75 45.851562 C 47.351562 44.351562 48.300781 40.601562 47.398438 35.25 C 47.25 34.300781 47.050781 33.351562 46.800781 32.351562 C 47.800781 32.050781 48.699219 31.75 49.601562 31.449219 C 54.648438 29.5 57.449219 26.800781 57.449219 23.851562 C 57.449219 20.851562 54.648438 18.148438 49.601562 16.25 C 48.699219 15.898438 47.800781 15.601562 46.800781 15.351562 C 47.050781 14.351562 47.25 13.398438 47.398438 12.449219 C 48.25 7 47.300781 3.199219 44.699219 1.699219 C 43.949219 1.25 43.050781 1.050781 42.101562 1.050781 C 39.25 1.050781 35.601562 3.148438 31.949219 6.699219 C 28.351562 3.148438 24.75 1.050781 21.851562 1.050781 C 20.898438 1.050781 20 1.25 19.25 1.699219 C 16.648438 3.199219 15.699219 6.949219 16.601562 12.300781 C 16.75 13.25 16.949219 14.199219 17.199219 15.199219 C 16.199219 15.5 15.300781 15.800781 14.398438 16.101562 C 9.351562 18.050781 6.550781 20.75 6.550781 23.699219 C 6.550781 26.699219 9.351562 29.398438 14.398438 31.300781 C 15.300781 31.648438 16.199219 31.949219 17.199219 32.199219 C 16.949219 33.199219 16.75 34.148438 16.601562 35.101562 C 15.75 40.449219 16.699219 44.25 19.25 45.699219 C 20 46.148438 20.898438 46.351562 21.851562 46.351562 C 24.75 46.449219 28.351562 44.351562 32 40.851562 Z M 29.199219 34.101562 C 30.101562 34.148438 31.050781 34.148438 32 34.148438 C 32.949219 34.148438 33.898438 34.148438 34.800781 34.101562 C 33.898438 35.300781 32.949219 36.398438 32 37.449219 C 31.050781 36.398438 30.101562 35.300781 29.199219 34.101562 Z M 23 28.949219 C 23.5 29.800781 23.949219 30.601562 24.5 31.398438 C 22.949219 31.199219 21.5 30.949219 20.101562 30.648438 C 20.550781 29.300781 21.050781 27.898438 21.648438 26.5 C 22.050781 27.300781 22.5 28.148438 23 28.949219 Z M 20.101562 16.898438 C 21.5 16.601562 22.949219 16.351562 24.5 16.148438 C 24 16.949219 23.5 17.75 23 18.601562 C 22.5 19.449219 22.050781 20.25 21.648438 21.101562 C 21 19.648438 20.5 18.25 20.101562 16.898438 Z M 22.851562 23.75 C 23.5 22.398438 24.199219 21.050781 25 19.699219 C 25.75 18.398438 26.601562 17.101562 27.449219 15.800781 C 28.949219 15.699219 30.449219 15.648438 32 15.648438 C 33.601562 15.648438 35.101562 15.699219 36.550781 15.800781 C 37.449219 17.101562 38.25 18.398438 39 19.699219 C 39.800781 21.050781 40.5 22.398438 41.148438 23.75 C 40.5 25.101562 39.800781 26.449219 39 27.800781 C 38.25 29.101562 37.398438 30.398438 36.550781 31.699219 C 35.050781 31.800781 33.550781 31.851562 32 31.851562 C 30.398438 31.851562 28.898438 31.800781 27.449219 31.699219 C 26.550781 30.398438 25.75 29.101562 25 27.800781 C 24.199219 26.449219 23.5 25.101562 22.851562 23.75 Z M 42.398438 21.050781 L 41.050781 18.550781 C 40.550781 17.699219 40.101562 16.898438 39.550781 16.101562 C 41.101562 16.300781 42.550781 16.550781 43.949219 16.851562 C 43.5 18.25 43 19.648438 42.398438 21.050781 Z M 42.398438 26.449219 C 43 27.851562 43.5 29.25 43.949219 30.601562 C 42.550781 30.898438 41.101562 31.148438 39.550781 31.351562 C 40.050781 30.550781 40.550781 29.75 41.050781 28.898438 C 41.5 28.148438 41.949219 27.300781 42.398438 26.449219 Z M 43.550781 43.800781 C 43.148438 44.050781 42.648438 44.148438 42.101562 44.148438 C 39.648438 44.148438 36.601562 42.148438 33.601562 39.148438 C 35.050781 37.601562 36.449219 35.851562 37.851562 33.898438 C 40.199219 33.699219 42.449219 33.351562 44.550781 32.851562 C 44.800781 33.75 44.949219 34.648438 45.101562 35.550781 C 45.800781 39.800781 45.25 42.851562 43.550781 43.800781 Z M 46.148438 17.449219 C 51.75 19.050781 55.101562 21.5 55.101562 23.75 C 55.101562 25.699219 52.800781 27.648438 48.75 29.199219 C 47.949219 29.5 47.050781 29.800781 46.148438 30.050781 C 45.5 28 44.699219 25.898438 43.699219 23.75 C 44.699219 21.601562 45.550781 19.5 46.148438 17.449219 Z M 42.148438 3.351562 C 42.699219 3.351562 43.148438 3.449219 43.601562 3.699219 C 45.25 4.648438 45.851562 7.648438 45.148438 11.949219 C 45 12.800781 44.800781 13.699219 44.601562 14.648438 C 42.5 14.199219 40.25 13.851562 37.898438 13.601562 C 36.550781 11.648438 35.101562 9.898438 33.648438 8.351562 C 36.648438 5.398438 39.699219 3.351562 42.148438 3.351562 Z M 34.800781 13.398438 C 33.898438 13.351562 32.949219 13.351562 32 13.351562 C 31.050781 13.351562 30.101562 13.351562 29.199219 13.398438 C 30.101562 12.199219 31.050781 11.101562 32 10.050781 C 32.949219 11.101562 33.898438 12.25 34.800781 13.398438 Z M 20.449219 3.699219 C 20.851562 3.449219 21.351562 3.351562 21.898438 3.351562 C 24.351562 3.351562 27.398438 5.351562 30.398438 8.351562 C 28.949219 9.898438 27.550781 11.648438 26.148438 13.601562 C 23.800781 13.800781 21.550781 14.148438 19.449219 14.648438 C 19.199219 13.75 19.050781 12.851562 18.898438 11.949219 C 18.199219 7.699219 18.75 4.699219 20.449219 3.699219 Z M 17.851562 30.050781 C 12.25 28.449219 8.898438 26 8.898438 23.75 C 8.898438 21.800781 11.199219 19.851562 15.25 18.300781 C 16.050781 18 16.949219 17.699219 17.851562 17.449219 C 18.5 19.5 19.300781 21.601562 20.300781 23.75 C 19.300781 25.898438 18.449219 28.050781 17.851562 30.050781 Z M 18.898438 35.550781 C 19.050781 34.699219 19.25 33.800781 19.449219 32.851562 C 21.550781 33.300781 23.800781 33.648438 26.148438 33.898438 C 27.5 35.851562 28.949219 37.601562 30.398438 39.148438 C 27.398438 42.101562 24.351562 44.148438 21.898438 44.148438 C 21.351562 44.148438 20.898438 44.050781 20.449219 43.800781 C 18.75 42.851562 18.199219 39.800781 18.898438 35.550781 Z M 16.800781 56.148438 C 17.898438 54.800781 17.949219 53.300781 17.351562 51.800781 C 16.75 50.300781 15.5 49.601562 13.949219 49.550781 C 12.101562 49.5 10.199219 49.550781 8.351562 49.550781 L 8 49.550781 L 8 62.5 L 9.5 62.5 L 9.5 57.601562 L 11.851562 57.601562 C 12.148438 57.601562 12.398438 57.699219 12.550781 57.949219 L 15.550781 62.601562 C 15.601562 62.699219 15.75 62.851562 15.851562 62.851562 L 17.800781 62.851562 C 16.601562 61 15.449219 59.25 14.25 57.449219 C 15.300781 57.300781 16.199219 56.949219 16.800781 56.148438 Z M 9.5 56.050781 L 9.5 51.101562 L 10.050781 51.101562 C 11.199219 51.101562 12.398438 51.050781 13.550781 51.148438 C 14.898438 51.199219 15.851562 52.25 15.851562 53.601562 C 15.851562 54.949219 14.75 56 13.398438 56.050781 C 12.199219 56.101562 11 56.050781 9.5 56.050781 Z M 28.851562 56.699219 C 28.050781 53.199219 24.851562 52.300781 22.398438 53.398438 C 20.5 54.25 19.648438 55.898438 19.601562 57.949219 C 19.550781 59.5 20 60.898438 21.199219 61.949219 C 22.550781 63.148438 24.199219 63.300781 25.898438 63 C 26.851562 62.800781 27.699219 62.351562 28.351562 61.648438 C 28.101562 61.300781 27.851562 60.949219 27.601562 60.648438 C 26.199219 61.851562 24.648438 62.25 22.949219 61.449219 C 21.851562 60.898438 21.300781 59.550781 21.199219 58.550781 L 28.949219 58.550781 L 28.949219 57.898438 C 29 57.449219 28.949219 57.050781 28.851562 56.699219 Z M 21.300781 57.5 C 21.148438 56 22.648438 54.398438 24.300781 54.398438 C 26.199219 54.351562 27.398438 55.5 27.449219 57.5 Z M 36.648438 53.148438 C 35.898438 53 35.101562 52.949219 34.351562 53 C 33.148438 53.101562 32.101562 53.648438 31.25 54.550781 C 31.5 54.898438 31.699219 55.25 32 55.648438 C 32.101562 55.550781 32.199219 55.449219 32.300781 55.398438 C 33.101562 54.648438 34.050781 54.25 35.199219 54.351562 C 36.101562 54.398438 36.949219 54.699219 37.199219 55.601562 C 37.398438 56.300781 37.351562 57.050781 37.398438 57.800781 C 37.25 57.800781 37.199219 57.75 37.148438 57.699219 C 35.949219 56.699219 34.601562 56.5 33.148438 56.851562 C 31.800781 57.199219 30.949219 58.25 30.851562 59.601562 C 30.75 61.148438 31.449219 62.300781 32.800781 62.851562 C 33.648438 63.199219 34.601562 63.199219 35.5 63 C 36.199219 62.851562 36.5 62.449219 37.5 61.898438 L 37.5 62.550781 L 38.898438 62.550781 C 38.898438 60.550781 38.949219 58.101562 38.898438 55.800781 C 38.898438 54.351562 38.050781 53.449219 36.648438 53.148438 Z M 37.351562 59.449219 C 37.300781 59.601562 37.351562 59.75 37.351562 59.898438 C 37.351562 60.949219 37.101562 61.300781 36.101562 61.699219 C 35.398438 61.949219 34.648438 62.050781 33.898438 61.800781 C 33.050781 61.550781 32.449219 60.800781 32.449219 59.949219 C 32.398438 59.101562 32.949219 58.25 33.800781 58 C 34.949219 57.601562 36 57.851562 36.949219 58.550781 C 37.25 58.800781 37.449219 59.050781 37.351562 59.449219 Z M 45.148438 54.5 C 46.449219 54.101562 47.648438 54.351562 48.550781 55.449219 L 48.699219 55.550781 C 49.050781 55.25 49.351562 54.949219 49.75 54.601562 C 49.601562 54.449219 49.550781 54.351562 49.449219 54.199219 C 48 52.648438 45.148438 52.449219 43.398438 53.699219 C 40.949219 55.5 41 59 42.199219 60.851562 C 43.351562 62.601562 45 63.199219 46.949219 62.949219 C 48.101562 62.800781 49.050781 62.25 49.800781 61.300781 C 49.449219 61 49.101562 60.699219 48.75 60.351562 C 48.648438 60.449219 48.601562 60.5 48.550781 60.601562 C 47.199219 62.101562 44.949219 61.949219 43.75 60.351562 C 43.050781 59.398438 42.898438 58.300781 43.101562 57.199219 C 43.199219 55.949219 43.851562 54.949219 45.148438 54.5 Z M 55.550781 61.300781 C 55.449219 61.351562 55.398438 61.398438 55.398438 61.398438 C 55 61.699219 54.601562 61.75 54.148438 61.601562 C 53.699219 61.398438 53.648438 61 53.601562 60.601562 L 53.601562 54.898438 C 53.601562 54.800781 53.601562 55 53.648438 54.5 L 55.550781 54.5 L 55.550781 53 L 53.550781 53 L 53.550781 50.5 L 52.050781 50.5 L 52.050781 53.199219 L 50.75 53.199219 C 50.648438 53.199219 50.5 53.300781 50.5 53.398438 C 50.449219 53.75 50.5 54 50.5 54.5 L 52.101562 54.5 L 52.101562 60.898438 C 52.101562 61.699219 52.300781 62.398438 53 62.800781 C 53.75 63.25 55.199219 63.148438 55.851562 62.601562 C 55.949219 62.550781 56 62.351562 56 62.300781 C 55.851562 62 55.699219 61.648438 55.550781 61.300781 Z M 55.550781 61.300781 "/>
</g>
</svg>
