<?xml version="1.0" encoding="UTF-8"?>
<svg xmlns="http://www.w3.org/2000/svg" xmlns:xlink="http://www.w3.org/1999/xlink" width="64pt" height="64pt" viewBox="0 0 64 64" version="1.1">
<g id="surface1">
<path style=" stroke:none;fill-rule:nonzero;fill:rgb(46.27451%,29.019608%,73.72549%);fill-opacity:1;" d="M 44.34375 44.054688 C 39.84375 53.253906 31.964844 59.445312 21.539062 61.480469 C 19.941406 61.871094 18.300781 62.0625 16.65625 62.050781 C 10.65625 62.050781 5.15625 59.550781 2.484375 55.453125 C -1.101562 50 -2.320312 38.433594 9.5 29.878906 C 9.738281 31.183594 10.230469 32.976562 10.554688 34.035156 C 8.234375 35.757812 6.335938 37.988281 5 40.550781 C 2.800781 44.871094 3.046875 49.183594 5.648438 53.175781 C 7.449219 55.863281 10.300781 57.5 13.964844 58 C 18.542969 58.578125 23.1875 57.703125 27.238281 55.5 C 33.59375 52.160156 37.828125 48.171875 40.601562 42.714844 C 39.816406 41.90625 39.351562 40.839844 39.296875 39.714844 C 39.207031 37.203125 41.171875 35.09375 43.683594 35 L 43.855469 35 C 46.292969 34.988281 48.3125 36.890625 48.445312 39.324219 C 48.578125 41.757812 46.78125 43.871094 44.355469 44.125 Z M 58.679688 33.953125 C 64.785156 40.875 64.949219 49.019531 62.589844 53.746094 C 60.390625 58.058594 54.589844 62.378906 46.789062 62.378906 C 43.148438 62.304688 39.566406 61.445312 36.289062 59.855469 C 37.433594 59.039062 39.058594 57.734375 39.953125 56.921875 C 42.480469 58.015625 45.203125 58.597656 47.953125 58.628906 C 53.003906 58.628906 56.828125 56.269531 59.109375 51.953125 C 60.574219 49.105469 60.660156 45.765625 59.273438 42.34375 C 57.574219 38.042969 54.550781 34.390625 50.640625 31.921875 C 45.507812 28.460938 39.457031 26.617188 33.269531 26.625 L 31.804688 26.625 C 31.109375 28.234375 29.558594 29.308594 27.804688 29.394531 L 27.648438 29.394531 C 25.179688 29.363281 23.183594 27.375 23.140625 24.90625 C 23.101562 22.4375 25.03125 20.382812 27.5 20.269531 L 27.664062 20.269531 C 29.351562 20.269531 30.894531 21.214844 31.664062 22.714844 L 32.96875 22.714844 C 43.371094 22.714844 52.5 26.703125 58.679688 33.953125 Z M 17.304688 45.453125 C 17.21875 44.625 17.421875 43.789062 17.875 43.089844 C 13.316406 35.191406 10.875 25.175781 14.621094 14.75 C 17.304688 6.914062 24.066406 1.621094 31.394531 1.621094 C 39.214844 1.621094 47.359375 8.464844 48.335938 21.65625 C 47.113281 21.25 45.335938 20.65625 44.265625 20.433594 C 44 16.121094 40.355469 5.371094 31.71875 5.53125 C 28.625 5.613281 24.066406 7.078125 21.71875 10.089844 C 18.820312 13.683594 17.132812 18.101562 16.898438 22.714844 C 16.351562 29.039062 17.835938 35.375 21.136719 40.796875 C 21.316406 40.726562 21.511719 40.699219 21.703125 40.714844 L 21.863281 40.714844 C 24.382812 40.667969 26.460938 42.675781 26.507812 45.191406 C 26.554688 47.710938 24.546875 49.789062 22.03125 49.835938 L 21.863281 49.835938 C 19.414062 49.828125 17.402344 47.890625 17.304688 45.441406 Z M 17.304688 45.453125 "/>
</g>
</svg>
